<svg width="560" height="530" viewBox="0 0 560 530" fill="none" xmlns="http://www.w3.org/2000/svg">
<g clip-path="url(#clip0_1069_8846)">
<path d="M280.006 530C434.649 530 560.012 457.49 560.012 368.044C560.012 278.598 434.649 206.088 280.006 206.088C125.363 206.088 0 278.598 0 368.044C0 457.49 125.363 530 280.006 530Z" fill="white"/>
<path d="M100.397 82.0211L85.6767 90.4962C85.7479 89.8402 85.8013 89.1842 85.8013 88.5459V84.2906C85.8013 76.7198 80.4794 73.6702 73.8938 77.4467C71.2239 78.9715 68.7854 81.4006 66.792 84.2374C65.724 74.734 58.2306 71.1879 49.1353 76.4184C39.2924 82.0743 31.3185 95.833 31.3185 107.145V113.51C31.3185 116.436 31.8702 118.9 32.8314 120.868L20.6034 127.907C16.9546 129.999 14 135.106 14 139.308C14 143.51 16.9546 145.194 20.6034 143.102L100.397 97.216C104.045 95.1238 107 90.0175 107 85.8154C107 81.6133 104.045 79.929 100.397 82.0211Z" fill="white"/>
<path d="M210.548 39.1678L202.961 43.5528C202.998 43.2118 203.022 42.8707 203.022 42.5418V40.3371C203.022 36.4149 200.274 34.8314 196.882 36.7925C195.508 37.5842 194.244 38.8389 193.222 40.3127C192.663 35.3795 188.809 33.5402 184.116 36.2565C179.046 39.1921 174.936 46.3179 174.936 52.1891V55.4901C174.936 57.0127 175.216 58.2916 175.715 59.3148L169.404 62.9569C167.52 64.041 166 66.6842 166 68.8646C166 71.045 167.52 71.922 169.404 70.8379L210.536 47.0487C212.42 45.9647 213.94 43.3214 213.94 41.141C213.94 38.9607 212.42 38.0837 210.536 39.1678H210.548Z" fill="white"/>
<path d="M102.021 423.891L114.568 416.631C114.568 416.631 117.644 389.699 115.601 368.846C112.732 339.539 93.838 304.275 71.2964 312.558C48.7549 320.841 81.631 350.684 88.9503 375.545C96.2696 400.406 102.021 423.903 102.021 423.903V423.891Z" fill="#03967b"/>
<path opacity="0.2" d="M102.021 423.891L114.568 416.631C114.568 416.631 117.644 389.699 115.601 368.846C112.732 339.539 93.838 304.275 71.2964 312.558C48.7549 320.841 81.631 350.684 88.9503 375.545C96.2696 400.406 102.021 423.903 102.021 423.903V423.891Z" fill="black"/>
<path d="M108.622 420.833H108.598C108.185 420.821 107.844 420.468 107.869 420.041C110.069 354.922 77.7159 322.156 77.3876 321.839C77.0837 321.547 77.0837 321.06 77.3876 320.767C77.6916 320.463 78.1658 320.463 78.4576 320.767C78.7858 321.096 111.613 354.326 109.388 420.114C109.376 420.528 109.036 420.845 108.635 420.845L108.622 420.833Z" fill="white"/>
<path d="M95.3215 429.082L104.258 423.917C104.258 423.917 105.778 405.439 96.7318 382.99C88.8532 363.44 69.327 347.227 59.4909 350.638C49.667 354.048 49.9101 361.028 54.7005 368.348C59.4909 375.669 88.6344 393.124 95.3215 429.094V429.082Z" fill="#03967b"/>
<path d="M100.039 427.121C99.6255 427.121 99.2851 426.78 99.2851 426.354C99.4675 385.183 60.8769 357.349 60.4757 357.069C60.1353 356.826 60.0502 356.351 60.2933 356.01C60.5365 355.668 61.0107 355.583 61.3511 355.827C61.7523 356.107 100.975 384.403 100.793 426.354C100.793 426.768 100.452 427.109 100.039 427.109V427.121Z" fill="white"/>
<path d="M336.445 371.844L258.608 416.889L258.425 416.792L228.844 399.677C223.798 396.754 220.564 389.677 221.671 383.94L232.65 326.787L310.487 281.73L299.508 338.883C298.402 344.62 301.636 351.697 306.682 354.621L336.445 371.844Z" fill="#37474F"/>
<path d="M232.65 326.788L221.768 383.453L299.606 338.433L309.673 286.031L304.761 285.057L232.65 326.788Z" fill="#263238"/>
<path d="M258.62 416.9L228.844 399.677C223.798 396.753 220.564 389.676 221.671 383.951L232.65 326.787L219.665 319.283L207.117 384.67C205.464 393.318 210.327 403.989 217.938 408.398L258.608 431.919V416.9H258.62Z" fill="#263238"/>
<path d="M336.457 371.846L258.62 416.903V431.922L336.457 386.865V371.846Z" fill="#455A64"/>
<path d="M412.593 1.48507C416.18 3.55581 419.085 8.81793 419.085 13.2396V252.544C419.085 256.966 415.985 262.337 412.167 264.554L114.434 436.767C110.617 438.972 104.61 439.093 101.024 437.011C97.4371 434.94 94.5312 429.678 94.5312 425.256V185.952C94.5312 181.53 97.6316 176.158 101.449 173.941L399.182 1.72869C403 -0.47604 409.006 -0.597848 412.593 1.48507Z" fill="#455A64"/>
<path d="M113.62 437.182C109.802 438.973 104.367 438.936 101.024 437.012C97.4371 434.941 94.5312 429.679 94.5312 425.257V185.953C94.5312 183.748 95.3094 181.3 96.5617 179.119L109.547 186.635C108.294 188.803 107.516 191.251 107.516 193.456V432.76C107.516 436.865 110.179 438.705 113.62 437.182Z" fill="#263238"/>
<path d="M419.086 252.544V13.2399C419.086 8.81829 415.985 7.0277 412.168 9.23243L114.435 181.457C110.617 183.662 107.517 189.046 107.517 193.467V432.772C107.517 437.194 110.617 438.984 114.435 436.779L412.168 264.567C415.985 262.362 419.086 256.978 419.086 252.557V252.544Z" fill="#37474F"/>
<path d="M403.887 21.4629L119.541 186.014C116.489 187.78 114.009 192.08 114.009 195.624V408.095C114.009 411.627 116.489 413.064 119.553 411.298L403.9 246.747C406.951 244.981 409.432 240.681 409.432 237.137V24.6543C409.432 21.1218 406.951 19.6845 403.887 21.4507V21.4629Z" fill="#03967b"/>
<path opacity="0.8" d="M403.887 21.4629L119.541 186.014C116.489 187.78 114.009 192.08 114.009 195.624V408.095C114.009 411.627 116.489 413.064 119.553 411.298L403.9 246.747C406.951 244.981 409.432 240.681 409.432 237.137V24.6543C409.432 21.1218 406.951 19.6845 403.887 21.4507V21.4629Z" fill="white"/>
<path d="M134.276 385.155C132.769 385.155 131.869 383.925 131.869 381.867V213.601L391.571 63.3867V230.946C391.571 234.235 389.261 238.242 386.428 239.887L136.416 384.498C135.663 384.936 134.933 385.168 134.289 385.168L134.276 385.155Z" fill="#F5F5F5"/>
<path d="M390.963 64.4354V230.947C390.963 233.98 388.75 237.842 386.124 239.352L136.112 383.963C135.456 384.34 134.824 384.548 134.289 384.548C132.659 384.548 132.489 382.672 132.489 381.868V213.955L390.975 64.4354M392.191 62.3281L131.273 213.249V381.868C131.273 384.341 132.501 385.766 134.289 385.766C135.018 385.766 135.845 385.522 136.72 385.023L386.732 240.412C389.747 238.67 392.191 234.431 392.191 230.947V62.3281Z" fill="#E0E0E0"/>
<path d="M131.261 213.251V236.906L392.179 85.9852V62.3301L131.261 213.251Z" fill="#03967b"/>
<path d="M294.973 127.827V132.918C294.973 133.954 295.715 134.38 296.615 133.868L376.835 87.4716V78.5918L296.615 124.989C295.715 125.512 294.973 126.791 294.973 127.827Z" fill="#FAFAFA"/>
<path d="M385.431 73.6068C386.331 73.083 387.072 73.5094 387.072 74.5569V79.6485C387.072 80.696 386.343 81.9629 385.431 82.4866L376.835 87.4564V78.5766L385.431 73.6068Z" fill="#455A64"/>
<path d="M384.787 80.6012L383.826 80.2967C383.923 79.8948 383.984 79.4684 383.984 79.0543C383.984 78.0676 383.668 77.3246 383.109 77.0079C382.695 76.7643 382.197 76.7886 381.711 77.081C380.641 77.7022 379.79 79.4562 379.79 81.0763C379.79 82.0629 380.106 82.806 380.665 83.1227C380.847 83.2323 381.054 83.281 381.273 83.281C381.528 83.281 381.796 83.2079 382.063 83.0496C382.708 82.672 383.267 81.8924 383.607 80.9789L384.568 81.2834C384.568 81.2834 384.641 81.2955 384.677 81.2955C384.823 81.2955 384.969 81.1981 385.018 81.0398C385.078 80.857 384.969 80.65 384.787 80.5891V80.6012ZM381.711 82.4405C381.443 82.5989 381.212 82.6233 381.03 82.5136C380.714 82.3309 380.507 81.7828 380.507 81.0763C380.507 79.7364 381.224 78.1894 382.063 77.7022C382.221 77.6169 382.367 77.5682 382.489 77.5682C382.586 77.5682 382.671 77.5926 382.744 77.6413C383.06 77.824 383.267 78.3721 383.267 79.0786C383.267 80.4185 382.55 81.9655 381.711 82.4527V82.4405Z" fill="#FAFAFA"/>
<path d="M131.261 201.8C131.261 198.316 133.705 194.077 136.72 192.335L386.732 47.7244C389.747 45.9826 392.191 47.3955 392.191 50.8792V62.3292L131.273 213.25V201.8H131.261Z" fill="#37474F"/>
<path d="M361.479 68.2283C360.069 69.0444 358.926 71.0299 358.926 72.6621C358.926 74.2943 360.069 74.9643 361.479 74.1482C362.889 73.332 364.032 71.3466 364.032 69.7143C364.032 68.0821 362.889 67.4122 361.479 68.2405V68.2283Z" fill="#03967b"/>
<path d="M370.428 63.0608C369.017 63.8769 367.875 65.8623 367.875 67.4946C367.875 69.1268 369.017 69.7968 370.428 68.9806C371.838 68.1645 372.981 66.179 372.981 64.5468C372.981 62.9146 371.838 62.2446 370.428 63.0608Z" fill="#03967b"/>
<path d="M379.388 57.8967C377.978 58.7128 376.835 60.6983 376.835 62.3305C376.835 63.9627 377.978 64.6327 379.388 63.8166C380.799 63.0005 381.941 61.015 381.941 59.3828C381.941 57.7505 380.799 57.0806 379.388 57.8967Z" fill="#03967b"/>
<path d="M245.646 218.806L277.781 200.218C279.811 199.037 281.465 199.999 281.465 202.35V239.526C281.465 241.877 279.811 244.739 277.781 245.921L245.646 264.509C243.616 265.69 241.962 264.728 241.962 262.377V225.201C241.962 222.85 243.616 219.988 245.646 218.806Z" fill="#03967b"/>
<path d="M254.473 265.118L273.902 253.875C275.361 253.034 276.529 253.631 276.529 255.215C276.529 256.798 275.349 258.747 273.89 259.6L254.461 270.843C253.002 271.683 251.835 271.086 251.835 269.503C251.835 267.919 253.014 265.958 254.473 265.118Z" fill="#455A64"/>
<path d="M261.44 217.442C264.844 215.468 267.616 217.064 267.616 221.011C267.616 224.957 264.856 229.744 261.44 231.718C258.035 233.691 255.263 232.095 255.263 228.149C255.263 224.202 258.023 219.415 261.44 217.442Z" fill="#FAFAFA"/>
<path d="M273.61 238.539C273.61 232.059 269.075 229.184 263.47 232.425L259.969 234.447C254.364 237.687 249.829 245.568 249.829 252.048V253.79L273.61 240.038V238.539Z" fill="#FAFAFA"/>
<path d="M304.943 184.478L337.078 165.89C339.108 164.709 340.762 165.671 340.762 168.022V205.198C340.762 207.549 339.108 210.411 337.078 211.593L304.943 230.181C302.913 231.362 301.259 230.4 301.259 228.049V190.873C301.259 188.522 302.913 185.66 304.943 184.478Z" fill="#03967b"/>
<path opacity="0.2" d="M304.943 184.478L337.078 165.89C339.108 164.709 340.762 165.671 340.762 168.022V205.198C340.762 207.549 339.108 210.411 337.078 211.593L304.943 230.181C302.913 231.362 301.259 230.4 301.259 228.049V190.873C301.259 188.522 302.913 185.66 304.943 184.478Z" fill="black"/>
<path d="M313.77 230.79L333.199 219.547C334.658 218.706 335.825 219.303 335.825 220.887C335.825 222.47 334.646 224.419 333.187 225.272L313.758 236.515C312.299 237.355 311.132 236.758 311.132 235.175C311.132 233.591 312.311 231.63 313.77 230.79Z" fill="#455A64"/>
<path d="M320.736 183.114C324.141 181.14 326.913 182.736 326.913 186.683C326.913 190.629 324.153 195.416 320.736 197.39C317.332 199.363 314.56 197.767 314.56 193.821C314.56 189.874 317.32 185.087 320.736 183.114Z" fill="#FAFAFA"/>
<path d="M332.907 204.211C332.907 197.731 328.372 194.856 322.767 198.096L319.266 200.118C313.661 203.359 309.125 211.24 309.125 217.72V219.462L332.907 205.709V204.211Z" fill="#FAFAFA"/>
<path d="M186.412 253.043L218.546 234.455C220.576 233.273 222.23 234.235 222.23 236.586V273.762C222.23 276.113 220.576 278.976 218.546 280.157L186.412 298.745C184.381 299.927 182.728 298.964 182.728 296.613V259.438C182.728 257.087 184.381 254.224 186.412 253.043Z" fill="#03967b"/>
<path opacity="0.5" d="M186.412 253.043L218.546 234.455C220.576 233.273 222.23 234.235 222.23 236.586V273.762C222.23 276.113 220.576 278.976 218.546 280.157L186.412 298.745C184.381 299.927 182.728 298.964 182.728 296.613V259.438C182.728 257.087 184.381 254.224 186.412 253.043Z" fill="white"/>
<path d="M195.238 299.366L214.667 288.123C216.126 287.283 217.294 287.88 217.294 289.451C217.294 291.034 216.114 292.983 214.655 293.836L195.226 305.079C193.767 305.919 192.6 305.323 192.6 303.739C192.6 302.156 193.779 300.194 195.238 299.354V299.366Z" fill="#455A64"/>
<path d="M202.205 251.692C205.609 249.718 208.381 251.314 208.381 255.261C208.381 259.207 205.621 263.994 202.205 265.968C198.8 267.941 196.028 266.345 196.028 262.399C196.028 258.452 198.788 253.665 202.205 251.692Z" fill="#FAFAFA"/>
<path d="M214.375 272.776C214.375 266.295 209.84 263.421 204.235 266.661L200.734 268.683C195.129 271.923 190.594 279.804 190.594 286.284V288.026L214.375 274.274V272.776Z" fill="#FAFAFA"/>
<path d="M503.431 184.715L487.775 175.676C471.987 166.741 450.346 168.07 426.361 181.938C403.923 194.891 383.462 216.513 368.042 241.517C350.219 270.317 339 303.681 339 333.559C339 361.443 348.744 380.998 364.504 390.169L380.322 399.252C396.243 409.413 418.724 408.513 443.653 394.098C491.918 366.184 531.043 298.29 531.058 242.448C531.058 213.382 520.443 193.34 503.461 184.715H503.431Z" fill="#03967b"/>
<path opacity="0.1" d="M379.688 398.884L364.489 390.17C348.73 381.014 339 361.43 339 333.56C339 303.667 350.204 270.333 368.042 241.533L385.245 251.576C367.408 280.376 356.233 313.681 356.233 343.529C356.233 370.188 365.137 389.24 379.673 398.884H379.688Z" fill="black"/>
<path opacity="0.4" d="M502.797 184.346C487.23 176.784 466.458 178.704 443.653 191.878C421.201 204.89 400.724 226.527 385.26 251.56L368.056 241.517C383.491 216.484 403.967 194.876 426.375 181.924C450.345 168.055 472.001 166.726 487.805 175.647L502.797 184.331V184.346Z" fill="white"/>
<path d="M404.44 394.218C397.614 394.218 391.555 392.564 386.425 389.285L386.174 389.123L385.673 388.842C374.16 380.999 367.821 364.916 367.821 343.53C367.821 317.005 377.742 285.753 395.064 257.81C410.101 233.47 429.368 213.694 449.344 202.13C461.078 195.351 472.533 191.762 482.469 191.762C487.849 191.762 492.773 192.796 497.107 194.848L497.638 195.159L497.889 195.292C511.318 202.1 519.014 219.292 519.014 242.464C519.014 294.452 482.454 357.9 437.506 383.879C425.786 390.659 414.361 394.247 404.425 394.247L404.44 394.218Z" fill="#FAFAFA"/>
<g clip-path="url(#clip1_1069_8846)">
<mask id="mask0_1069_8846" style="mask-type:luminance" maskUnits="userSpaceOnUse" x="367" y="191" width="153" height="204">
<path d="M404.44 394.222C397.614 394.222 391.555 392.568 386.425 389.289L386.174 389.126L385.673 388.846C374.16 381.003 367.821 364.92 367.821 343.534C367.821 317.008 377.742 285.757 395.064 257.813C410.101 233.474 429.368 213.698 449.344 202.134C461.078 195.355 472.533 191.766 482.469 191.766C487.849 191.766 492.773 192.799 497.107 194.852L497.638 195.163L497.889 195.295C511.318 202.104 519.014 219.295 519.014 242.468C519.014 294.456 482.454 357.904 437.506 383.883C425.786 390.662 414.361 394.251 404.425 394.251L404.44 394.222Z" fill="white"/>
</mask>
<g mask="url(#mask0_1069_8846)">
<path d="M409.522 329.425C408.414 312.372 417.831 303.429 417.831 303.429C417.079 297.692 443.708 305.724 443.708 305.724C443.708 305.724 449.406 336.587 451.819 352.849C454.549 371.327 452.887 408.916 452.887 408.916C452.887 408.916 452.531 412.912 445.647 412.912C440.384 412.912 436.467 408.283 436.467 408.283L435.913 365.471L429.78 335.123C429.78 335.123 423.885 359.813 422.025 368.636C420.047 378.053 412.41 405.909 412.41 405.909C412.41 405.909 407.464 411.567 401.371 408.52C395.238 405.474 396.464 402.031 396.464 402.031C396.464 402.031 397.651 382.248 405.525 364.561C406.198 351.148 409.957 337.22 409.442 329.386L409.522 329.425Z" fill="#2A3742"/>
<path d="M440.068 261.014C440.068 261.014 443.866 260.816 447.823 268.215C451.74 275.615 455.499 283.449 455.499 283.449C455.499 283.449 449.762 284.28 443.55 290.017C435.043 282.301 433.658 264.615 440.068 261.014Z" fill="#2D7E31"/>
<path d="M440.067 261.014C440.067 261.014 442.204 265.129 444.182 272.647C446.16 280.165 445.448 315.222 445.448 315.222C445.448 315.222 437.337 320.959 423.726 319.851C415.654 319.178 411.539 314.193 411.539 314.193C411.539 314.193 406.712 279.888 407.345 274.982C407.978 270.075 418.265 258.522 418.265 258.522C418.265 258.522 431.877 257.849 440.067 261.054V261.014Z" fill="#338F37"/>
<path d="M430.768 256.227L432.35 265.447C432.35 265.447 427.681 270.709 423.092 266.792C418.502 262.875 417.869 261.055 417.869 261.055L420.124 248.512L430.807 256.267L430.768 256.227Z" fill="#FFAD97"/>
<path d="M424.279 234.663C428.196 231.695 437.455 230.706 440.858 240.321C444.419 250.371 435.318 262.914 430.452 260.777C427.721 259.59 422.024 255.357 420.441 250.055C418.621 244.08 421.232 236.997 424.279 234.663Z" fill="#FFC5B3"/>
<path d="M461.711 344.066V307.625L432.352 292.945V327.369L461.711 344.066Z" fill="#DBA763"/>
<path d="M461.71 344.066V307.625L491.109 292.945V327.369L461.71 344.066Z" fill="#E8B679"/>
<path d="M461.711 344.374V307.616L432.352 290.602V327.36L461.711 344.374Z" fill="#DBA763"/>
<path d="M461.71 344.374V307.616L491.109 290.602V327.36L461.71 344.374Z" fill="#E8B679"/>
<path d="M491.109 290.607L461.711 307.621L432.352 290.607L461.711 273.633L491.109 290.607Z" fill="#FFE1C0"/>
<path d="M443.271 307.613L449.8 311.412V300.689L443.271 296.891V307.613Z" fill="#3C4D56"/>
<path d="M443.271 296.896L472.591 279.922L479.159 283.72L449.8 300.695L443.271 296.896Z" fill="#3C4D56"/>
<path d="M457.832 339.115V337.215L447.979 331.518V333.417L457.832 339.115Z" fill="#3C4D56"/>
<path d="M457.832 335.75V333.851L447.979 328.113V330.052L457.832 335.75Z" fill="#3C4D56"/>
<path d="M439.117 321.979V328.507L434.369 325.777V319.209L439.117 321.979Z" fill="#3C4D56"/>
<path d="M484.62 321.269V328.114L489.368 325.384V318.539L484.62 321.269Z" fill="#3C4D56"/>
<path d="M478.209 325.031V331.837L482.918 329.106V322.301L478.209 325.031Z" fill="#3C4D56"/>
<path d="M479.674 301.288V311.141L489.368 305.522V295.67L479.674 301.288Z" fill="white"/>
<path d="M480.861 303.309V301.726L488.458 297.334V298.877L480.861 303.309Z" fill="#3C4D56"/>
<path d="M425.071 292.749C425.071 292.749 430.65 304.461 432.945 307.705C435.24 310.95 444.617 318.428 446.516 319.496C448.455 320.564 452.847 321.949 455.142 321.751C457.437 321.514 458.98 322.661 456.764 323.492C454.548 324.323 452.412 324.521 452.412 324.521C452.412 324.521 456.448 327.528 458.07 330.061C459.376 332.118 460.444 335.877 455.458 334.769C451.423 333.899 445.844 327.726 444.38 326.341C441.61 323.769 430.65 317.834 428.157 316.054C424.636 313.561 414.704 298.921 414.704 298.921C414.704 298.921 417.751 291.166 425.031 292.709L425.071 292.749Z" fill="#FFC5B3"/>
<path d="M409.086 270.712C411.974 268.377 418.147 276.251 421.431 281.158C424.715 286.064 427.326 293.423 427.326 293.423C427.326 293.423 423.37 296.272 419.848 298.528C416.881 300.387 413.755 301.812 413.755 301.812C413.755 301.812 399.194 278.665 409.086 270.712Z" fill="#2D7E31"/>
<path d="M441.651 243.489C440.029 245.151 437.694 246.971 432.827 246.18C428.831 245.507 425.982 243.687 425.982 243.687L425.151 249.029C425.151 249.029 424.36 248.87 423.766 248.514C423.687 246.417 422.935 245.744 421.788 246.378C420.482 247.09 420.443 250.097 420.443 250.097C420.443 250.097 416.486 246.259 417.831 240.284C418.662 236.525 423.727 229.126 430.77 229.799C437.813 230.471 441.928 235.101 442.798 239.137C443.233 241.155 442.403 242.816 441.69 243.568L441.651 243.489Z" fill="#3C4D56"/>
</g>
</g>
<path d="M418.337 358.009L406.848 351.374H406.82L406.708 351.304V351.332C400.984 348.106 393.152 348.585 384.476 353.6C376.362 358.291 368.966 366.11 363.383 375.154C356.929 385.579 352.879 397.639 352.879 408.444C352.879 418.531 356.394 425.603 362.103 428.928L362.146 428.956L373.803 435.633C379.568 439.31 387.696 438.986 396.71 433.774C414.16 423.673 428.32 399.118 428.32 378.93C428.32 368.42 424.482 361.165 418.337 358.052V358.009Z" fill="#37474F"/>
<path d="M373.564 435.479L362.131 428.928H362.089V428.9C356.394 425.59 352.865 418.503 352.865 408.417C352.865 397.597 356.915 385.552 363.369 375.127L375.575 382.171C369.12 392.596 365.084 404.627 365.084 415.432C365.084 425.068 368.305 431.971 373.564 435.451V435.479Z" fill="#263238"/>
<path d="M418.097 357.883C412.473 355.15 404.95 355.84 396.709 360.602C388.582 365.307 381.185 373.14 375.588 382.185L363.383 375.141C368.965 366.082 376.376 358.278 384.476 353.586C393.152 348.571 400.984 348.092 406.693 351.318V351.29L406.82 351.36H406.848L418.097 357.869V357.883Z" fill="#455A64"/>
<path d="M410.42 385.003L399.888 391.089V374.17C399.888 371.465 398.467 370.084 396.71 371.099C394.952 372.113 393.532 375.142 393.532 377.847V394.766L382.999 400.866C381.481 401.74 380.257 404.346 380.257 406.685C380.257 409.023 381.481 410.207 382.999 409.333L393.532 403.233V420.153C393.532 422.858 394.952 424.238 396.71 423.224C398.467 422.209 399.888 419.181 399.888 416.476V399.556L410.42 393.47C411.939 392.597 413.162 389.991 413.162 387.652C413.162 385.313 411.939 384.13 410.42 385.003Z" fill="#F5F5F5"/>
</g>
<defs>
<clipPath id="clip0_1069_8846">
<rect width="560" height="530" fill="white"/>
</clipPath>
<clipPath id="clip1_1069_8846">
<rect width="151.193" height="202.486" fill="white" transform="translate(367.821 191.766)"/>
</clipPath>
</defs>
</svg>
