<svg width="219" height="200" viewBox="0 0 219 200" fill="none" xmlns="http://www.w3.org/2000/svg">
<g clip-path="url(#clip0_232_8773)">
<path d="M32.4229 178.99C-10.1452 150.354 -10.1452 103.92 32.4229 75.2833C74.9909 46.6465 144.003 46.6465 186.571 75.2833C229.139 103.92 229.139 150.354 186.571 178.99C144.003 207.627 74.9909 207.627 32.4229 178.99Z" fill="#F5F5F5"/>
<path d="M66.4902 180.368C84.961 180.368 99.9345 170.295 99.9345 157.87C99.9345 145.444 84.961 135.372 66.4902 135.372C48.0194 135.372 33.0459 145.444 33.0459 157.87C33.0459 170.295 48.0194 180.368 66.4902 180.368Z" fill="white"/>
<path d="M143.784 147.356C166.975 132.78 180.729 110.063 174.505 96.6147C168.28 83.1666 144.435 84.0804 121.244 98.6558C98.0529 113.231 84.2987 135.949 90.5231 149.397C96.7474 162.845 120.593 161.931 143.784 147.356Z" fill="white"/>
<path d="M166.865 115.413C171.503 108.973 178.767 104.771 186.935 102.296C194.999 99.8496 196.445 94.0674 191.101 92.1912C185.042 90.0626 177.482 93.9741 172.604 99.4107C164.107 108.885 163.043 116.138 163.043 116.138L166.865 115.413Z" fill="#03967b"/>
<path opacity="0.15" d="M166.865 115.413C171.503 108.973 178.767 104.771 186.935 102.296C194.999 99.8496 196.445 94.0674 191.101 92.1912C185.042 90.0626 177.482 93.9741 172.604 99.4107C164.107 108.885 163.043 116.138 163.043 116.138L166.865 115.413Z" fill="black"/>
<path d="M164.479 115.04C164.446 115.04 164.408 115.03 164.375 115.013C164.258 114.947 164.21 114.783 164.267 114.645C171.15 98.1875 186.38 94.1389 190.085 94.4461C190.216 94.4571 190.311 94.5887 190.301 94.7423C190.292 94.8959 190.169 95.0057 190.047 94.9947C186.431 94.671 171.465 98.6868 164.686 114.887C164.644 114.986 164.564 115.04 164.474 115.04H164.479Z" fill="white"/>
<path d="M163.043 117.125C163.043 118.288 164.126 118.996 164.987 118.409C169.299 115.485 175.589 113.866 185.772 117.24C191.186 119.034 193.851 117.833 194.99 115.265C196.256 112.413 193.573 109.653 190.513 108.353C180.094 103.915 170.693 106.948 163.043 115.797V117.125Z" fill="#03967b"/>
<path d="M163.632 117.361C163.566 117.361 163.505 117.328 163.458 117.267C163.373 117.152 163.378 116.982 163.476 116.878C172.473 107.508 186.408 109.335 191.681 112.988C191.794 113.065 191.832 113.235 191.761 113.367C191.69 113.499 191.549 113.537 191.436 113.46C186.267 109.878 172.61 108.1 163.787 117.289C163.745 117.339 163.688 117.361 163.632 117.361Z" fill="white"/>
<path d="M62.3836 138.97C58.429 131.937 51.6404 126.769 43.783 123.187C36.0198 119.648 35.1724 113.707 40.6712 112.582C46.9043 111.304 54.0178 116.225 58.3066 122.293C65.7873 132.87 66.1075 140.215 66.1075 140.215L62.3836 138.97Z" fill="#03967b"/>
<path opacity="0.15" d="M62.3836 138.97C58.429 131.937 51.6404 126.769 43.783 123.187C36.0198 119.648 35.1724 113.707 40.6712 112.582C46.9043 111.304 54.0178 116.225 58.3066 122.293C65.7873 132.87 66.1075 140.215 66.1075 140.215L62.3836 138.97Z" fill="black"/>
<path d="M64.7894 138.926C64.8224 138.926 64.86 138.926 64.893 138.915C65.0154 138.866 65.0813 138.707 65.0389 138.564C59.8698 121.278 45.1531 115.161 41.4481 114.958C41.3163 114.952 41.208 115.067 41.2033 115.221C41.1986 115.375 41.3068 115.501 41.4292 115.506C45.0543 115.682 59.5072 121.727 64.5964 138.745C64.6246 138.849 64.7047 138.915 64.7894 138.926Z" fill="white"/>
<path d="M66.1392 139.881C65.965 141.576 64.3173 142.459 63.1027 141.505C59.1105 138.389 53.1645 136.37 43.424 138.186C37.8688 139.223 35.3454 137.665 34.4698 134.96C33.5 131.954 36.4471 129.584 39.6154 128.712C50.4104 125.738 59.44 130.039 66.1392 139.881Z" fill="#03967b"/>
<path d="M65.3913 141.351C65.4572 141.362 65.5231 141.34 65.5749 141.286C65.6737 141.187 65.6831 141.011 65.5937 140.896C57.6092 130.358 43.5847 130.253 37.9777 133.155C37.86 133.216 37.8035 133.38 37.86 133.517C37.9117 133.655 38.053 133.72 38.1707 133.655C43.6647 130.813 57.4115 130.917 65.2406 141.258C65.2783 141.313 65.3348 141.34 65.3913 141.351Z" fill="white"/>
<path d="M143.616 37.9634L143.551 37.9208C143.551 37.9208 143.547 37.9208 143.543 37.9208L128.071 27.5439C128.071 27.5439 128.063 27.5392 128.055 27.5344L127.965 27.4824C120.737 23.2399 111.093 24.5122 100.723 32.3303C79.885 48.0328 64.003 84.1769 65.2531 113.056C65.8781 127.453 70.6391 137.324 77.8394 141.661L77.9043 141.704C77.9043 141.704 77.9084 141.704 77.9124 141.709L93.3885 152.09C93.3885 152.09 93.3926 152.09 93.3966 152.09L93.4738 152.137C100.702 156.394 110.354 155.127 120.737 147.304C141.574 131.601 157.456 95.4571 156.206 66.5778C155.581 52.1807 150.82 42.3099 143.62 37.9728L143.616 37.9634Z" fill="#37474F"/>
<path d="M92.8613 151.754L77.9169 141.699H77.9047L77.8357 141.652C70.6395 137.3 65.8786 127.429 65.2576 113.051C64.7015 100.172 67.5549 85.8557 72.7217 72.5559L72.8272 72.2627L88.2018 82.9328C83.0229 96.2279 80.1776 110.545 80.7337 123.428C81.3425 137.513 85.9208 147.266 92.8613 151.749V151.754Z" fill="#263238"/>
<path d="M120.737 147.294C141.575 131.591 157.457 95.4474 156.203 66.568C154.952 37.6887 137.045 27.0044 116.207 42.7069C95.3696 58.4094 79.4876 94.5534 80.7377 123.433C81.9878 152.317 99.8951 162.996 120.733 147.294H120.737Z" fill="#455A64"/>
<path d="M138.385 35.7219L112.267 98.4088L106.645 91.3096C104.912 89.115 102.44 87.8569 99.863 87.8569C97.5333 87.8569 95.305 88.8691 93.5881 90.7089C89.85 94.7339 89.6187 101.559 93.0686 105.92L107.879 124.611C109.519 126.683 111.751 127.903 114.166 128.054C114.337 128.064 114.507 128.069 114.678 128.069C115.12 128.069 115.566 128.031 116.017 127.955C119.045 127.43 121.651 125.207 122.978 122.005L152.931 50.1095C149.875 42.14 144.757 37.1786 138.385 35.7124V35.7219Z" fill="#37474F"/>
<path d="M159.595 15.0721C159.433 14.9633 159.267 14.8592 159.092 14.7646C155.106 12.518 150.293 14.4572 148.369 19.0875L115.131 98.8581L113.244 96.4743C112.68 95.7649 112.047 95.1784 111.361 94.7196C110.371 94.0575 106.158 91.2149 105.476 90.7562C102.521 88.7697 98.6691 89.1433 96.0146 91.9859C92.7676 95.4811 92.5687 101.407 95.5641 105.196L110.375 123.892C110.939 124.602 111.584 125.198 112.286 125.666C113.252 126.309 117.449 129.142 118.139 129.606C119.223 130.339 120.444 130.769 121.727 130.85C122.255 130.883 122.786 130.859 123.334 130.769C125.964 130.315 128.225 128.381 129.378 125.604L168.695 31.2333C170.542 26.7922 169.101 21.4713 165.493 19.0497C165.326 18.9409 160.642 15.7862 159.591 15.0815L159.595 15.0721Z" fill="#03967b"/>
<path opacity="0.15" d="M159.595 15.0721C159.433 14.9633 159.267 14.8592 159.092 14.7646C155.106 12.518 150.293 14.4572 148.369 19.0875L115.131 98.8581L113.244 96.4743C112.68 95.7649 112.047 95.1784 111.361 94.7196C110.371 94.0575 106.158 91.2149 105.476 90.7562C102.521 88.7697 98.6691 89.1433 96.0146 91.9859C92.7676 95.4811 92.5687 101.407 95.5641 105.196L110.375 123.892C110.939 124.602 111.584 125.198 112.286 125.666C113.252 126.309 117.449 129.142 118.139 129.606C119.223 130.339 120.444 130.769 121.727 130.85C122.255 130.883 122.786 130.859 123.334 130.769C125.964 130.315 128.225 128.381 129.378 125.604L168.695 31.2333C170.542 26.7922 169.101 21.4713 165.493 19.0497C165.326 18.9409 160.642 15.7862 159.591 15.0815L159.595 15.0721Z" fill="black"/>
<path opacity="0.15" d="M118.135 129.601C117.449 129.137 113.252 126.299 112.282 125.661C111.58 125.193 110.934 124.602 110.37 123.892L95.5597 105.2C94.8859 104.344 94.3786 103.375 94.0295 102.358L99.9188 106.317C100.268 107.338 100.779 108.308 101.457 109.164L116.268 127.856C116.82 128.551 117.449 129.137 118.135 129.605V129.601Z" fill="black"/>
<path opacity="0.15" d="M156.121 20.1752C155.366 20.9603 154.729 21.9299 154.262 23.0509L120.079 105.101L115.135 98.8532L148.369 19.0827C148.835 17.957 149.477 16.9922 150.231 16.207L156.121 20.1705V20.1752Z" fill="black"/>
<path d="M164.985 18.728C160.999 16.4814 156.186 18.4206 154.262 23.0509L120.079 105.101L113.244 96.4742C110.257 92.6952 105.175 92.454 101.908 95.954C98.6607 99.4492 98.4618 105.375 101.457 109.164L116.268 127.86C117.688 129.658 119.628 130.717 121.727 130.849C122.254 130.883 122.786 130.859 123.334 130.769C125.964 130.315 128.225 128.381 129.377 125.604L168.695 31.2332C170.627 26.5887 168.963 20.9841 164.985 18.7375V18.728Z" fill="#03967b"/>
<path d="M198.947 61.5956L195.562 60.6465L197.535 51.1338L200.915 52.0829L198.947 61.5956Z" fill="#F5F5F5"/>
<path d="M211.55 60.5259C211.447 61.0361 210.609 61.7219 209.95 61.5353C209.95 61.5353 210.053 62.051 209.926 62.6655C209.775 63.4061 208.914 63.9492 207.902 63.6584C206.889 63.3731 200.153 61.486 200.153 61.486L201.979 52.6481C201.979 52.6481 204.766 50.0806 205.068 49.6143C205.378 49.1645 205.637 46.8603 205.722 46.4489C205.793 46.1142 207.097 46.3117 207.742 47.2828C207.888 47.5077 208.005 47.771 208.062 48.0837C208.179 48.7311 208.222 49.3126 208.184 49.8612C208.137 50.7115 207.911 51.4795 207.52 52.2585L212.2 53.5697C212.591 53.6794 212.864 53.9098 213.038 54.1786C213.306 54.5901 213.358 55.1003 213.287 55.4404C213.132 56.2414 212.529 56.5321 212.247 56.6144C212.247 56.6144 213.137 57.1082 212.911 58.2054C212.784 58.8198 212.214 59.3629 211.475 59.3135C211.475 59.3135 211.71 59.7634 211.55 60.5259Z" fill="#F5F5F5"/>
<path d="M27.9683 55.9066L31.6639 57.2013L34.3379 46.8108L30.647 45.5161L27.9683 55.9066Z" fill="#F5F5F5"/>
<path d="M16.4198 46.6739C16.2786 47.2335 16.7494 48.4349 17.4697 48.6873C17.4697 48.6873 17.126 49.1097 16.9518 49.7845C16.74 50.5909 17.3049 51.6717 18.4159 52.0557C19.5223 52.4397 26.8759 55.0236 26.8759 55.0236L29.3663 45.3738H29.371C29.371 45.3738 27.9351 41.1057 27.8645 40.4638C27.7798 39.8329 28.6413 37.452 28.7543 37.0076C28.8485 36.6456 27.502 35.9818 26.4192 36.492C26.1697 36.6126 25.9343 36.7882 25.7272 37.046C25.3035 37.5891 24.988 38.1158 24.7574 38.6644C24.3902 39.5092 24.2442 40.3925 24.2442 41.3909L19.1362 39.597C18.7078 39.4489 18.3359 39.4928 18.044 39.6354C17.5874 39.8549 17.2955 40.3102 17.2013 40.6778C16.9659 41.55 17.4038 42.2193 17.6344 42.4772C17.6344 42.4772 16.5469 42.3729 16.2362 43.5689C16.062 44.2382 16.3492 45.1269 17.0789 45.5658C17.0789 45.5658 16.6411 45.8401 16.4245 46.6739H16.4198Z" fill="#F5F5F5"/>
</g>
<defs>
<clipPath id="clip0_232_8773">
<rect width="218" height="200" fill="white" transform="translate(0.5)"/>
</clipPath>
</defs>
</svg>
