<svg width="577" height="489" viewBox="0 0 577 489" fill="none" xmlns="http://www.w3.org/2000/svg">
<path opacity="0.7" d="M81.8585 443.556C191.016 498.815 367.975 498.815 477.132 443.556C586.289 388.298 586.289 298.702 477.132 243.444C367.975 188.185 191.016 188.185 81.8585 243.444C-27.2862 298.702 -27.2862 388.298 81.8585 443.556Z" fill="white"/>
<path d="M420.737 300.862L387.583 281.507V209.625L420.737 228.979V300.862Z" fill="#E0E0E0"/>
<path d="M420.736 228.979L468.094 201.321V273.213L420.736 300.861V228.979Z" fill="#EBEBEB"/>
<path d="M468.094 201.322L420.737 228.979L387.583 209.624L434.94 181.967L468.094 201.322Z" fill="#F5F5F5"/>
<path d="M425.464 231.737L463.355 209.624L464.224 210.13V236.757L426.342 258.879L425.464 258.364V231.737Z" fill="#E6E6E6"/>
<path d="M441.187 228.091L447.633 224.331C448.472 223.844 449.143 224.064 449.143 224.827C449.143 225.591 448.463 226.603 447.633 227.099L441.187 230.859C440.347 231.346 439.677 231.126 439.677 230.363C439.677 229.599 440.356 228.588 441.196 228.091H441.187Z" fill="#E6E6E6"/>
<path d="M424.596 265.435L462.487 243.313L462.478 269.94L463.355 270.455L425.464 292.568L424.596 292.062V265.435Z" fill="#E0E0E0"/>
<path d="M425.465 265.941L463.356 243.819V270.455L425.465 292.568V265.941Z" fill="#F5F5F5"/>
<path d="M440.318 261.78L446.763 258.02C447.603 257.533 448.273 257.753 448.273 258.516C448.273 259.28 447.594 260.291 446.763 260.788L440.318 264.548C439.478 265.034 438.808 264.815 438.808 264.051C438.808 263.288 439.487 262.276 440.327 261.78H440.318Z" fill="#E6E6E6"/>
<path d="M425.465 231.737L463.356 209.615V236.251L425.465 258.364V231.737Z" fill="#E0E0E0"/>
<path d="M482.297 222.775L461.562 210.674V234.132L482.297 246.234V222.775Z" fill="#E6E6E6"/>
<path d="M439.677 262.152V228.978L447.802 224.216L449.143 226.211L472.831 212.382V242.798L439.677 262.152Z" fill="#EBEBEB"/>
<path d="M439.677 262.152L442.046 233.12L475.19 213.766L472.831 242.798L439.677 262.152Z" fill="#FAFAFA"/>
<path d="M444.415 244.898L426.333 234.342V257.801L444.415 268.356V244.898Z" fill="#E6E6E6"/>
<path d="M444.414 242.798L482.296 220.676V247.303L444.414 269.425V242.798Z" fill="#F5F5F5"/>
<path d="M459.261 238.637L465.707 234.877C466.547 234.39 467.217 234.609 467.217 235.373C467.217 236.136 466.537 237.148 465.707 237.644L459.261 241.404C458.421 241.891 457.751 241.672 457.751 240.908C457.751 240.145 458.43 239.133 459.27 238.637H459.261Z" fill="#E6E6E6"/>
<path d="M444.416 242.798L443.151 242.063V268.69L444.416 269.425V242.798Z" fill="#E0E0E0"/>
<path d="M443.151 242.063L481.033 219.941L482.298 220.676L444.416 242.798L443.151 242.063Z" fill="#F0F0F0"/>
<path d="M398.812 306.645C399.03 301.128 403.324 289.523 409.269 282.595C415.215 275.666 424.53 271.305 430.758 273.748C436.562 276.019 435.609 283.807 428.267 288.684C420.925 293.56 409.93 299.63 406.438 308.439L399.416 319.137L398.812 306.635V306.645Z" fill="#03967b"/>
<path opacity="0.1" d="M398.812 306.645C399.03 301.128 403.324 289.523 409.269 282.595C415.215 275.666 424.53 271.305 430.758 273.748C436.562 276.019 435.609 283.807 428.267 288.684C420.925 293.56 409.93 299.63 406.438 308.439L399.416 319.137L398.812 306.635V306.645Z" fill="black"/>
<path d="M428.463 276.439C421.404 278.1 401.095 292.501 399.179 313.106" stroke="white" stroke-width="1.3297" stroke-miterlimit="10" stroke-linecap="round"/>
<path d="M400.604 328.538C400.925 322.84 405.757 318.679 412.108 314.919C419.649 310.452 426.17 308.439 428.464 304.03C430.757 299.63 426.652 294.658 418.856 297.292C412.278 299.515 399.509 310.958 399.415 319.147L400.604 328.538Z" fill="#03967b"/>
<path d="M423.537 300.775C413.109 303.19 401.453 312.781 399.887 322.831" stroke="white" stroke-width="1.29097" stroke-miterlimit="10" stroke-linecap="round"/>
<path d="M108.996 241.634V407.492L276.861 309.479V158.699L152.04 231.575L147.737 219.015L108.996 241.634Z" fill="#263238"/>
<path d="M108.996 407.492L117.603 256.703L285.468 158.699L276.861 309.479L108.996 407.492Z" fill="white"/>
<path d="M108.996 407.492L121.907 259.222L289.771 161.209L276.861 309.479L108.996 407.492Z" fill="#455A64"/>
<path d="M153.856 273.853V439.712L321.721 341.708V190.919L196.891 263.804L192.588 251.235L153.856 273.853Z" fill="#03967b"/>
<g opacity="0.1">
<path d="M153.856 273.853V439.712L321.721 341.708V190.919L196.891 263.804L192.588 251.235L153.856 273.853Z" fill="black"/>
</g>
<path d="M214.814 381.772C213.851 381.209 213.077 379.787 213.077 378.594V171.688C213.077 170.496 213.908 169.035 214.927 168.444L343.418 93.4212C344.447 92.8199 346.051 92.7913 347.014 93.3544C347.977 93.9175 348.75 95.3395 348.75 96.5324V303.438C348.75 304.631 347.92 306.091 346.901 306.683L218.409 381.706C217.381 382.307 215.776 382.336 214.814 381.772Z" fill="#EBEBEB"/>
<path d="M216.55 175.62L268.739 141.091L265.257 139.059L214.927 168.443C213.898 169.045 213.077 170.495 213.077 171.688V173.587L216.55 175.62Z" fill="#EBEBEB"/>
<path d="M233.943 181.709L213.615 169.837C213.275 170.429 213.067 171.087 213.067 171.688V378.594C213.067 379.787 213.851 381.219 214.804 381.772C215.766 382.335 217.371 382.307 218.4 381.706L233.943 372.63V181.709Z" fill="#E0E0E0"/>
<path d="M218.41 381.706L346.901 306.683C347.93 306.082 348.751 304.631 348.751 303.439V96.5326C348.751 95.3397 347.921 94.8529 346.892 95.4542L218.401 170.477C217.372 171.078 216.551 172.529 216.551 173.722V380.627C216.551 381.82 217.381 382.307 218.41 381.706Z" fill="#E6E6E6"/>
<path d="M227.214 221.506L258.065 203.497C260.113 202.304 261.774 203.154 261.774 205.396C261.774 207.639 260.113 210.426 258.065 211.628L227.214 229.637C225.166 230.83 223.505 229.981 223.505 227.738C223.505 225.495 225.166 222.709 227.214 221.506Z" fill="#F5F5F5"/>
<path d="M224.987 254.442L228.979 252.113C229.8 251.636 230.46 252.027 230.46 252.981V257.639C230.46 258.593 229.8 259.757 228.979 260.235L224.987 262.563C224.166 263.04 223.505 262.659 223.505 261.695V257.037C223.505 256.083 224.166 254.919 224.987 254.442Z" fill="#FAFAFA"/>
<path d="M235.803 250.166L259.925 236.08C260.954 235.478 261.775 235.908 261.775 237.024C261.775 238.141 260.944 239.544 259.925 240.136L235.803 254.222C234.774 254.823 233.953 254.394 233.953 253.277C233.953 252.151 234.784 250.758 235.803 250.166Z" fill="#F5F5F5"/>
<path d="M224.987 270.694L228.979 268.365C229.8 267.888 230.46 268.279 230.46 269.234V273.891C230.46 274.845 229.8 276.01 228.979 276.487L224.987 278.815C224.166 279.293 223.505 278.901 223.505 277.947V273.29C223.505 272.335 224.166 271.171 224.987 270.694Z" fill="#FAFAFA"/>
<path d="M235.803 266.409L259.925 252.323C260.954 251.721 261.775 252.151 261.775 253.267C261.775 254.384 260.944 255.787 259.925 256.379L235.803 270.465C234.774 271.066 233.953 270.637 233.953 269.52C233.953 268.394 234.784 267.001 235.803 266.409Z" fill="#F5F5F5"/>
<path d="M224.987 286.938L228.979 284.609C229.8 284.132 230.46 284.523 230.46 285.477V290.135C230.46 291.089 229.8 292.253 228.979 292.731L224.987 295.059C224.166 295.536 223.505 295.145 223.505 294.191V289.534C223.505 288.579 224.166 287.415 224.987 286.938Z" fill="#FAFAFA"/>
<path d="M235.803 282.662L259.925 268.576C260.954 267.974 261.775 268.404 261.775 269.521C261.775 270.637 260.944 272.04 259.925 272.632L235.803 286.718C234.774 287.319 233.953 286.89 233.953 285.773C233.953 284.647 234.784 283.254 235.803 282.662Z" fill="#F5F5F5"/>
<path d="M224.987 303.229L228.979 300.9C229.8 300.423 230.46 300.814 230.46 301.768V306.426C230.46 307.38 229.8 308.544 228.979 309.022L224.987 311.35C224.166 311.827 223.505 311.436 223.505 310.482V305.825C223.505 304.87 224.166 303.706 224.987 303.229Z" fill="#FAFAFA"/>
<path d="M235.803 298.953L259.925 284.867C260.954 284.265 261.775 284.695 261.775 285.812C261.775 286.928 260.944 288.331 259.925 288.923L235.803 303.009C234.774 303.61 233.953 303.181 233.953 302.064C233.953 300.938 234.784 299.545 235.803 298.953Z" fill="#F5F5F5"/>
<path d="M225.365 337.204L242.532 327.183C243.561 326.582 244.382 327.011 244.382 328.128C244.382 329.244 243.551 330.647 242.532 331.239L225.365 341.26C224.337 341.861 223.516 341.432 223.516 340.315C223.516 339.198 224.346 337.795 225.365 337.204Z" fill="#F5F5F5"/>
<path d="M225.365 345.325L259.925 325.15C260.954 324.549 261.775 324.978 261.775 326.095C261.775 327.221 260.945 328.615 259.925 329.206L225.365 349.381C224.337 349.983 223.516 349.553 223.516 348.437C223.516 347.311 224.346 345.917 225.365 345.325Z" fill="#F0F0F0"/>
<path d="M225.364 345.325L249.486 331.239C250.515 330.638 251.336 331.067 251.336 332.184C251.336 333.31 250.506 334.703 249.477 335.295L225.355 349.381C224.326 349.983 223.505 349.553 223.505 348.436C223.505 347.31 224.335 345.917 225.355 345.325H225.364Z" fill="#FAFAFA"/>
<path d="M225.365 353.447L242.532 343.426C243.561 342.825 244.382 343.254 244.382 344.371C244.382 345.487 243.551 346.89 242.532 347.482L225.365 357.503C224.337 358.104 223.516 357.675 223.516 356.558C223.516 355.441 224.346 354.039 225.365 353.447Z" fill="#F5F5F5"/>
<path d="M225.365 320.96L242.532 310.939C243.561 310.338 244.382 310.768 244.382 311.884C244.382 313.001 243.551 314.404 242.532 314.996L225.365 325.016C224.337 325.618 223.516 325.188 223.516 324.072C223.516 322.955 224.346 321.552 225.365 320.96Z" fill="#F5F5F5"/>
<path d="M225.365 329.092L259.925 308.917C260.954 308.316 261.775 308.745 261.775 309.862C261.775 310.988 260.945 312.381 259.925 312.973L225.365 333.148C224.337 333.749 223.516 333.32 223.516 332.203C223.516 331.077 224.346 329.684 225.365 329.092Z" fill="#F0F0F0"/>
<path d="M225.364 329.092L237.614 321.934C238.643 321.333 239.464 321.762 239.464 322.879C239.464 324.005 238.633 325.398 237.604 325.99L225.355 333.148C224.326 333.749 223.505 333.319 223.505 332.203C223.505 331.077 224.335 329.683 225.355 329.092H225.364Z" fill="#FAFAFA"/>
<path d="M225.365 361.569L259.925 341.393C260.954 340.792 261.775 341.222 261.775 342.338C261.775 343.464 260.945 344.858 259.925 345.449L225.365 365.625C224.337 366.226 223.516 365.796 223.516 364.68C223.516 363.554 224.346 362.16 225.365 361.569Z" fill="#F0F0F0"/>
<path d="M225.364 361.568L256.442 343.426C257.47 342.825 258.291 343.254 258.291 344.371C258.291 345.497 257.461 346.89 256.432 347.482L225.355 365.625C224.326 366.226 223.505 365.796 223.505 364.68C223.505 363.554 224.335 362.16 225.355 361.568H225.364Z" fill="#FAFAFA"/>
<path d="M346.892 95.4542L268.73 141.092V352.331L346.892 306.693C347.92 306.092 348.741 304.641 348.741 303.448V96.5326C348.741 95.3397 347.911 94.8529 346.882 95.4542H346.892Z" fill="#F5F5F5"/>
<path d="M268.73 149.213V165.456L261.774 173.587H268.73V189.831L341.785 147.18V106.553L268.73 149.213Z" fill="#EBEBEB"/>
<path d="M278.29 149.776L307.886 132.493C309.32 131.653 310.481 132.331 310.481 134.01V134.039C310.481 135.709 309.32 137.751 307.886 138.582L278.29 155.865C276.855 156.705 275.694 156.028 275.694 154.348V154.319C275.694 152.649 276.855 150.607 278.29 149.776Z" fill="#FAFAFA"/>
<path d="M276.619 162.889L333.905 129.439C334.414 129.143 334.83 129.353 334.83 129.916C334.83 130.479 334.414 131.176 333.905 131.472L276.619 164.922C276.11 165.218 275.694 165.008 275.694 164.445C275.694 163.882 276.11 163.185 276.619 162.889Z" fill="#FAFAFA"/>
<path d="M276.619 168.978L333.905 135.528C334.414 135.232 334.83 135.442 334.83 136.005C334.83 136.568 334.414 137.265 333.905 137.56L276.619 171.011C276.11 171.307 275.694 171.097 275.694 170.534C275.694 169.971 276.11 169.274 276.619 168.978Z" fill="#FAFAFA"/>
<path d="M276.619 175.076L333.905 141.626C334.414 141.33 334.83 141.54 334.83 142.103C334.83 142.666 334.414 143.363 333.905 143.659L276.619 177.109C276.11 177.405 275.694 177.195 275.694 176.632C275.694 176.069 276.11 175.372 276.619 175.076Z" fill="#FAFAFA"/>
<path d="M278.778 192.112L282.77 189.784C283.591 189.307 284.251 189.698 284.251 190.652V195.31C284.251 196.264 283.591 197.428 282.77 197.905L278.778 200.234C277.957 200.711 277.296 200.32 277.296 199.366V194.708C277.296 193.754 277.957 192.59 278.778 192.112Z" fill="white"/>
<path d="M289.583 187.837L313.705 173.751C314.734 173.149 315.555 173.579 315.555 174.695C315.555 175.812 314.725 177.215 313.705 177.807L289.583 191.893C288.554 192.494 287.733 192.065 287.733 190.948C287.733 189.832 288.564 188.429 289.583 187.837Z" fill="#E0E0E0"/>
<path d="M278.221 206.666L338.989 171.183C339.498 170.887 339.914 171.097 339.914 171.66C339.914 172.223 339.498 172.92 338.989 173.216L278.221 208.699C277.711 208.995 277.296 208.785 277.296 208.222C277.296 207.659 277.711 206.962 278.221 206.666Z" fill="#E0E0E0"/>
<path d="M278.221 212.755L338.989 177.272C339.498 176.976 339.914 177.186 339.914 177.749C339.914 178.312 339.498 179.009 338.989 179.304L278.221 214.788C277.711 215.083 277.296 214.873 277.296 214.31C277.296 213.747 277.711 213.051 278.221 212.755Z" fill="#E0E0E0"/>
<path d="M278.221 218.853L338.989 183.37C339.498 183.074 339.914 183.284 339.914 183.847C339.914 184.41 339.498 185.107 338.989 185.403L278.221 220.886C277.711 221.182 277.296 220.972 277.296 220.409C277.296 219.846 277.711 219.149 278.221 218.853Z" fill="#E0E0E0"/>
<path d="M278.221 224.961L338.989 189.478C339.498 189.182 339.914 189.392 339.914 189.955C339.914 190.518 339.498 191.215 338.989 191.511L278.221 226.994C277.711 227.29 277.296 227.08 277.296 226.517C277.296 225.954 277.711 225.257 278.221 224.961Z" fill="#E0E0E0"/>
<path d="M278.778 236.795L282.77 234.467C283.591 233.989 284.251 234.371 284.251 235.335V239.992C284.251 240.947 283.591 242.111 282.77 242.588L278.778 244.917C277.957 245.394 277.296 245.003 277.296 244.048V239.391C277.296 238.437 277.957 237.272 278.778 236.795Z" fill="white"/>
<path d="M289.583 232.52L313.705 218.433C314.734 217.832 315.555 218.262 315.555 219.378C315.555 220.495 314.725 221.898 313.705 222.489L289.583 236.576C288.554 237.177 287.733 236.748 287.733 235.631C287.733 234.514 288.564 233.112 289.583 232.52Z" fill="#E0E0E0"/>
<path d="M278.221 251.349L338.989 215.866C339.498 215.57 339.914 215.78 339.914 216.343C339.914 216.906 339.498 217.603 338.989 217.899L278.221 253.382C277.711 253.678 277.296 253.468 277.296 252.905C277.296 252.342 277.711 251.645 278.221 251.349Z" fill="#E0E0E0"/>
<path d="M278.221 257.447L338.989 221.964C339.498 221.668 339.914 221.878 339.914 222.441C339.914 223.004 339.498 223.701 338.989 223.997L278.221 259.48C277.711 259.776 277.296 259.566 277.296 259.003C277.296 258.44 277.711 257.743 278.221 257.447Z" fill="#E0E0E0"/>
<path d="M278.221 263.536L338.989 228.053C339.498 227.757 339.914 227.967 339.914 228.53C339.914 229.093 339.498 229.79 338.989 230.086L278.221 265.569C277.711 265.865 277.296 265.655 277.296 265.092C277.296 264.529 277.711 263.832 278.221 263.536Z" fill="#E0E0E0"/>
<path d="M278.221 269.644L338.989 234.161C339.498 233.865 339.914 234.075 339.914 234.638C339.914 235.201 339.498 235.898 338.989 236.194L278.221 271.677C277.711 271.973 277.296 271.763 277.296 271.2C277.296 270.636 277.711 269.94 278.221 269.644Z" fill="#E0E0E0"/>
<path d="M284.461 278.558L288.453 276.23C289.274 275.752 289.935 276.134 289.935 277.098V281.755C289.935 282.71 289.274 283.874 288.453 284.351L284.461 286.68C283.64 287.157 282.979 286.766 282.979 285.811V281.154C282.979 280.2 283.64 279.035 284.461 278.558Z" fill="white"/>
<path d="M278.223 294.391L294.691 284.781C295.201 284.485 295.616 284.695 295.616 285.258C295.616 285.821 295.201 286.518 294.691 286.813L278.223 296.424C277.713 296.72 277.298 296.51 277.298 295.947C277.298 295.384 277.713 294.687 278.223 294.391Z" fill="#E0E0E0"/>
<path d="M306.612 265.617L310.604 263.288C311.425 262.811 312.085 263.202 312.085 264.157V268.814C312.085 269.768 311.425 270.933 310.604 271.41L306.612 273.738C305.79 274.216 305.13 273.834 305.13 272.87V268.213C305.13 267.258 305.79 266.094 306.612 265.617Z" fill="white"/>
<path d="M300.373 281.45L316.842 271.839C317.351 271.544 317.766 271.754 317.766 272.317C317.766 272.88 317.351 273.576 316.842 273.872L300.373 283.483C299.864 283.779 299.448 283.569 299.448 283.005C299.448 282.442 299.864 281.746 300.373 281.45Z" fill="#E0E0E0"/>
<path d="M328.761 252.676L332.753 250.347C333.574 249.87 334.235 250.261 334.235 251.216V255.873C334.235 256.827 333.574 257.991 332.753 258.469L328.761 260.797C327.94 261.274 327.279 260.883 327.279 259.929V255.272C327.279 254.317 327.94 253.153 328.761 252.676Z" fill="white"/>
<path d="M322.524 268.499L338.992 258.889C339.502 258.593 339.917 258.803 339.917 259.366C339.917 259.929 339.502 260.625 338.992 260.921L322.524 270.532C322.014 270.828 321.599 270.618 321.599 270.055C321.599 269.492 322.014 268.795 322.524 268.499Z" fill="#E0E0E0"/>
<path d="M278.223 298.352L294.691 288.741C295.201 288.445 295.616 288.655 295.616 289.218C295.616 289.781 295.201 290.478 294.691 290.774L278.223 300.384C277.713 300.68 277.298 300.47 277.298 299.907C277.298 299.344 277.713 298.647 278.223 298.352Z" fill="#E0E0E0"/>
<path d="M300.372 285.41L316.841 275.8C317.35 275.504 317.765 275.714 317.765 276.277C317.765 276.84 317.35 277.537 316.841 277.833L300.372 287.443C299.863 287.739 299.447 287.529 299.447 286.966C299.447 286.403 299.863 285.706 300.372 285.41Z" fill="#E0E0E0"/>
<path d="M322.524 272.469L338.992 262.858C339.502 262.563 339.917 262.773 339.917 263.336C339.917 263.899 339.502 264.595 338.992 264.891L322.524 274.502C322.014 274.798 321.599 274.588 321.599 274.025C321.599 273.461 322.014 272.765 322.524 272.469Z" fill="#E0E0E0"/>
<path d="M278.223 302.322L294.691 292.711C295.201 292.415 295.616 292.625 295.616 293.188C295.616 293.752 295.201 294.448 294.691 294.744L278.223 304.354C277.713 304.65 277.298 304.44 277.298 303.877C277.298 303.314 277.713 302.618 278.223 302.322Z" fill="#E0E0E0"/>
<path d="M300.372 289.38L316.841 279.77C317.35 279.474 317.765 279.684 317.765 280.247C317.765 280.81 317.35 281.507 316.841 281.803L300.372 291.413C299.863 291.709 299.447 291.499 299.447 290.936C299.447 290.373 299.863 289.676 300.372 289.38Z" fill="#E0E0E0"/>
<path d="M322.524 276.439L338.992 266.829C339.502 266.533 339.917 266.743 339.917 267.306C339.917 267.869 339.502 268.566 338.992 268.862L322.524 278.472C322.014 278.768 321.599 278.558 321.599 277.995C321.599 277.432 322.014 276.735 322.524 276.439Z" fill="#E0E0E0"/>
<path d="M284.461 311.913L288.453 309.585C289.274 309.108 289.935 309.499 289.935 310.453V315.111C289.935 316.065 289.274 317.229 288.453 317.706L284.461 320.035C283.64 320.512 282.979 320.121 282.979 319.167V314.509C282.979 313.555 283.64 312.391 284.461 311.913Z" fill="white"/>
<path d="M278.223 327.747L294.691 318.136C295.201 317.84 295.616 318.05 295.616 318.613C295.616 319.176 295.201 319.873 294.691 320.169L278.223 329.779C277.713 330.075 277.298 329.865 277.298 329.302C277.298 328.739 277.713 328.042 278.223 327.747Z" fill="#E0E0E0"/>
<path d="M306.612 298.973L310.604 296.644C311.425 296.167 312.085 296.558 312.085 297.513V302.17C312.085 303.124 311.425 304.289 310.604 304.766L306.612 307.094C305.79 307.572 305.13 307.18 305.13 306.226V301.569C305.13 300.614 305.79 299.45 306.612 298.973Z" fill="white"/>
<path d="M300.373 314.806L316.842 305.195C317.351 304.899 317.766 305.109 317.766 305.672C317.766 306.235 317.351 306.932 316.842 307.228L300.373 316.838C299.864 317.134 299.448 316.924 299.448 316.361C299.448 315.798 299.864 315.101 300.373 314.806Z" fill="#E0E0E0"/>
<path d="M328.761 286.031L332.753 283.702C333.574 283.225 334.235 283.616 334.235 284.571V289.228C334.235 290.182 333.574 291.347 332.753 291.824L328.761 294.153C327.94 294.63 327.279 294.238 327.279 293.284V288.627C327.279 287.672 327.94 286.508 328.761 286.031Z" fill="white"/>
<path d="M322.524 301.864L338.992 292.254C339.502 291.958 339.917 292.168 339.917 292.731C339.917 293.294 339.502 293.99 338.992 294.286L322.524 303.897C322.014 304.193 321.599 303.983 321.599 303.42C321.599 302.856 322.014 302.16 322.524 301.864Z" fill="#E0E0E0"/>
<path d="M278.223 331.716L294.691 322.106C295.201 321.81 295.616 322.02 295.616 322.583C295.616 323.146 295.201 323.843 294.691 324.139L278.223 333.749C277.713 334.045 277.298 333.835 277.298 333.272C277.298 332.709 277.713 332.012 278.223 331.716Z" fill="#E0E0E0"/>
<path d="M300.372 318.775L316.841 309.164C317.35 308.869 317.765 309.079 317.765 309.642C317.765 310.205 317.35 310.901 316.841 311.197L300.372 320.808C299.863 321.103 299.447 320.894 299.447 320.33C299.447 319.767 299.863 319.071 300.372 318.775Z" fill="#E0E0E0"/>
<path d="M322.524 305.834L338.992 296.224C339.502 295.928 339.917 296.138 339.917 296.701C339.917 297.264 339.502 297.961 338.992 298.257L322.524 307.867C322.014 308.163 321.599 307.953 321.599 307.39C321.599 306.827 322.014 306.13 322.524 305.834Z" fill="#E0E0E0"/>
<path d="M278.223 335.677L294.691 326.066C295.201 325.771 295.616 325.981 295.616 326.544C295.616 327.107 295.201 327.803 294.691 328.099L278.223 337.71C277.713 338.006 277.298 337.796 277.298 337.233C277.298 336.669 277.713 335.973 278.223 335.677Z" fill="#E0E0E0"/>
<path d="M300.372 322.736L316.841 313.125C317.35 312.829 317.765 313.039 317.765 313.602C317.765 314.165 317.35 314.862 316.841 315.158L300.372 324.768C299.863 325.064 299.447 324.854 299.447 324.291C299.447 323.728 299.863 323.031 300.372 322.736Z" fill="#E0E0E0"/>
<path d="M322.524 309.795L338.992 300.184C339.502 299.888 339.917 300.098 339.917 300.661C339.917 301.224 339.502 301.921 338.992 302.217L322.524 311.827C322.014 312.123 321.599 311.913 321.599 311.35C321.599 310.787 322.014 310.09 322.524 309.795Z" fill="#E0E0E0"/>
<path d="M240.899 165.514C250.525 159.893 258.33 164.445 258.33 175.697C258.33 186.949 250.525 200.615 240.899 206.237C231.273 211.858 223.468 207.305 223.468 196.053C223.468 184.802 231.273 171.135 240.899 165.514Z" fill="#FAFAFA"/>
<path d="M240.899 174.361C244.023 172.538 246.552 174.017 246.552 177.663C246.552 181.309 244.023 185.747 240.899 187.569C237.775 189.392 235.246 187.913 235.246 184.267C235.246 180.622 237.775 176.184 240.899 174.361Z" fill="#E0E0E0"/>
<path d="M251.93 193.811C251.93 187.817 247.769 185.384 242.635 188.38L239.426 190.251C234.292 193.248 230.13 200.539 230.13 206.532V208.145C233.093 209.138 236.83 208.603 240.898 206.227C245.079 203.784 248.92 199.823 251.921 195.194V193.801L251.93 193.811Z" fill="#E0E0E0"/>
<path d="M230.582 235.192L254.704 221.106C255.733 220.504 256.554 220.934 256.554 222.05C256.554 223.167 255.724 224.57 254.704 225.162L230.582 239.248C229.553 239.849 228.732 239.42 228.732 238.303C228.732 237.177 229.563 235.784 230.582 235.192Z" fill="#F5F5F5"/>
<path d="M153.856 439.712L184.519 305.423L352.383 207.41L321.721 341.708L153.856 439.712Z" fill="#03967b"/>
<path opacity="0.1" d="M238.19 390.476V274.082L351.94 207.992L321.722 341.708L238.19 390.476Z" fill="black"/>
<path d="M267.114 407.369C266.152 406.806 265.378 405.384 265.378 404.191V197.275C265.378 196.082 266.208 194.622 267.228 194.03L395.719 119.017C396.748 118.416 398.352 118.388 399.315 118.951C400.277 119.514 401.051 120.936 401.051 122.129V329.035C401.051 330.227 400.221 331.688 399.201 332.279L270.71 407.302C269.681 407.903 268.077 407.932 267.114 407.369Z" fill="#EBEBEB"/>
<path d="M268.851 201.207L321.04 166.678L317.558 164.645L267.228 194.03C266.199 194.631 265.378 196.082 265.378 197.275V199.174L268.851 201.207Z" fill="#455A64"/>
<path d="M286.244 207.305L265.916 195.433C265.576 196.025 265.368 196.683 265.368 197.285V404.19C265.368 405.383 266.151 406.815 267.105 407.369C268.058 407.922 269.672 407.903 270.7 407.302L286.244 398.226V207.305Z" fill="#263238"/>
<path d="M270.711 407.302L399.202 332.279C400.231 331.678 401.052 330.227 401.052 329.034V122.129C401.052 120.936 400.221 120.449 399.193 121.05L270.701 196.073C269.673 196.674 268.852 198.124 268.852 199.317V406.223C268.852 407.416 269.682 407.903 270.711 407.302Z" fill="#455A64"/>
<path d="M279.515 247.103L310.366 229.094C312.414 227.901 314.075 228.75 314.075 230.993C314.075 233.236 312.414 236.022 310.366 237.225L279.515 255.234C277.467 256.427 275.806 255.577 275.806 253.335C275.806 251.092 277.467 248.305 279.515 247.103Z" fill="#E0E0E0"/>
<path d="M277.298 280.028L281.29 277.7C282.111 277.222 282.772 277.614 282.772 278.568V283.225C282.772 284.18 282.111 285.344 281.29 285.821L277.298 288.15C276.477 288.627 275.816 288.236 275.816 287.281V282.624C275.816 281.67 276.477 280.505 277.298 280.028Z" fill="#03967b"/>
<path d="M288.104 275.752L312.226 261.666C313.255 261.065 314.076 261.494 314.076 262.611C314.076 263.727 313.245 265.13 312.226 265.722L288.104 279.808C287.075 280.41 286.254 279.98 286.254 278.864C286.254 277.738 287.084 276.344 288.104 275.752Z" fill="#E0E0E0"/>
<path d="M277.298 296.281L281.29 293.952C282.111 293.475 282.772 293.866 282.772 294.82V299.478C282.772 300.432 282.111 301.596 281.29 302.074L277.298 304.402C276.477 304.879 275.816 304.498 275.816 303.534V298.877C275.816 297.922 276.477 296.758 277.298 296.281Z" fill="#03967b"/>
<path d="M288.104 292.005L312.226 277.919C313.255 277.318 314.076 277.747 314.076 278.864C314.076 279.98 313.245 281.383 312.226 281.975L288.104 296.061C287.075 296.663 286.254 296.233 286.254 295.117C286.254 293.99 287.084 292.597 288.104 292.005Z" fill="#E0E0E0"/>
<path d="M277.298 312.534L281.29 310.205C282.111 309.728 282.772 310.119 282.772 311.073V315.731C282.772 316.685 282.111 317.849 281.29 318.327L277.298 320.655C276.477 321.132 275.816 320.741 275.816 319.787V315.129C275.816 314.175 276.477 313.011 277.298 312.534Z" fill="#03967b"/>
<path d="M288.104 308.248L312.226 294.162C313.255 293.561 314.076 293.99 314.076 295.107C314.076 296.223 313.245 297.626 312.226 298.218L288.104 312.304C287.075 312.906 286.254 312.476 286.254 311.36C286.254 310.233 287.084 308.84 288.104 308.248Z" fill="#E0E0E0"/>
<path d="M277.298 328.824L281.29 326.496C282.111 326.019 282.772 326.41 282.772 327.364V332.021C282.772 332.976 282.111 334.14 281.29 334.617L277.298 336.946C276.477 337.423 275.816 337.032 275.816 336.078V331.42C275.816 330.466 276.477 329.302 277.298 328.824Z" fill="#03967b"/>
<path d="M288.104 324.54L312.226 310.453C313.255 309.852 314.076 310.281 314.076 311.398C314.076 312.515 313.245 313.918 312.226 314.509L288.104 328.596C287.075 329.197 286.254 328.767 286.254 327.651C286.254 326.525 287.084 325.131 288.104 324.54Z" fill="#E0E0E0"/>
<path d="M277.666 362.8L294.833 352.779C295.862 352.178 296.683 352.607 296.683 353.724C296.683 354.841 295.852 356.243 294.833 356.835L277.666 366.856C276.637 367.457 275.816 367.028 275.816 365.911C275.816 364.795 276.647 363.392 277.666 362.8Z" fill="#E0E0E0"/>
<path d="M277.666 370.922L312.226 350.746C313.255 350.145 314.076 350.575 314.076 351.691C314.076 352.817 313.245 354.211 312.226 354.802L277.666 374.978C276.637 375.579 275.816 375.149 275.816 374.033C275.816 372.907 276.647 371.513 277.666 370.922Z" fill="#FAFAFA"/>
<path d="M277.665 370.921L301.787 356.835C302.816 356.234 303.637 356.663 303.637 357.78C303.637 358.906 302.806 360.299 301.778 360.891L277.655 374.977C276.627 375.579 275.806 375.149 275.806 374.033C275.806 372.906 276.636 371.513 277.655 370.921H277.665Z" fill="#03967b"/>
<path d="M277.666 379.033L294.833 369.012C295.862 368.411 296.683 368.841 296.683 369.957C296.683 371.074 295.852 372.477 294.833 373.069L277.666 383.089C276.637 383.691 275.816 383.261 275.816 382.145C275.816 381.028 276.647 379.625 277.666 379.033Z" fill="#E0E0E0"/>
<path d="M277.666 346.557L294.833 336.536C295.862 335.934 296.683 336.364 296.683 337.481C296.683 338.597 295.852 340 294.833 340.592L277.666 350.613C276.637 351.214 275.816 350.784 275.816 349.668C275.816 348.551 276.647 347.148 277.666 346.557Z" fill="#E0E0E0"/>
<path d="M277.666 354.678L312.226 334.503C313.255 333.902 314.076 334.331 314.076 335.448C314.076 336.574 313.245 337.968 312.226 338.559L277.666 358.734C276.637 359.336 275.816 358.906 275.816 357.79C275.816 356.664 276.647 355.27 277.666 354.678Z" fill="#FAFAFA"/>
<path d="M277.665 354.678L289.915 347.52C290.943 346.919 291.764 347.349 291.764 348.465C291.764 349.591 290.934 350.985 289.905 351.576L277.655 358.734C276.627 359.335 275.806 358.906 275.806 357.789C275.806 356.663 276.636 355.27 277.655 354.678H277.665Z" fill="#03967b"/>
<path d="M277.666 387.155L312.226 366.98C313.255 366.379 314.076 366.808 314.076 367.925C314.076 369.051 313.245 370.444 312.226 371.036L277.666 391.211C276.637 391.813 275.816 391.383 275.816 390.266C275.816 389.14 276.647 387.747 277.666 387.155Z" fill="#FAFAFA"/>
<path d="M277.665 387.155L308.742 369.012C309.771 368.411 310.592 368.841 310.592 369.957C310.592 371.083 309.762 372.477 308.733 373.069L277.655 391.211C276.627 391.812 275.806 391.383 275.806 390.266C275.806 389.14 276.636 387.747 277.655 387.155H277.665Z" fill="#03967b"/>
<path d="M399.202 121.041L321.041 166.678V377.917L399.202 332.279C400.231 331.678 401.052 330.227 401.052 329.034V122.129C401.052 120.936 400.221 120.449 399.193 121.05L399.202 121.041Z" fill="#FAFAFA"/>
<path d="M321.04 174.8V191.053L314.075 199.174H321.04V215.427L394.096 172.767V132.149L321.04 174.8Z" fill="#03967b"/>
<path d="M330.59 175.372L360.186 158.089C361.621 157.249 362.782 157.927 362.782 159.606V159.635C362.782 161.305 361.621 163.347 360.186 164.178L330.59 181.461C329.156 182.301 327.995 181.623 327.995 179.944V179.915C327.995 178.245 329.156 176.203 330.59 175.372Z" fill="#FAFAFA"/>
<path d="M328.92 188.476L386.206 155.025C386.715 154.73 387.13 154.94 387.13 155.503C387.13 156.066 386.715 156.762 386.206 157.058L328.92 190.509C328.41 190.805 327.995 190.595 327.995 190.032C327.995 189.468 328.41 188.772 328.92 188.476Z" fill="#FAFAFA"/>
<path d="M328.92 194.574L386.206 161.124C386.715 160.828 387.13 161.038 387.13 161.601C387.13 162.164 386.715 162.861 386.206 163.157L328.92 196.607C328.41 196.903 327.995 196.693 327.995 196.13C327.995 195.567 328.41 194.87 328.92 194.574Z" fill="#FAFAFA"/>
<path d="M328.92 200.663L386.206 167.213C386.715 166.917 387.13 167.127 387.13 167.69C387.13 168.253 386.715 168.95 386.206 169.246L328.92 202.696C328.41 202.992 327.995 202.782 327.995 202.219C327.995 201.656 328.41 200.959 328.92 200.663Z" fill="#FAFAFA"/>
<path d="M331.082 217.708L335.074 215.38C335.895 214.903 336.556 215.294 336.556 216.248V220.906C336.556 221.86 335.895 223.024 335.074 223.501L331.082 225.83C330.261 226.307 329.601 225.916 329.601 224.962V220.304C329.601 219.35 330.261 218.186 331.082 217.708Z" fill="#03967b"/>
<path d="M341.888 213.423L366.01 199.337C367.039 198.735 367.86 199.165 367.86 200.282C367.86 201.398 367.029 202.801 366.01 203.393L341.888 217.479C340.859 218.08 340.038 217.651 340.038 216.534C340.038 215.418 340.869 214.015 341.888 213.423Z" fill="#455A64"/>
<path d="M330.525 232.253L391.293 196.77C391.803 196.474 392.218 196.684 392.218 197.247C392.218 197.81 391.803 198.507 391.293 198.802L330.525 234.286C330.016 234.581 329.601 234.372 329.601 233.808C329.601 233.245 330.016 232.549 330.525 232.253Z" fill="#455A64"/>
<path d="M330.525 238.351L391.293 202.868C391.803 202.572 392.218 202.782 392.218 203.345C392.218 203.908 391.803 204.605 391.293 204.901L330.525 240.384C330.016 240.68 329.601 240.47 329.601 239.907C329.601 239.344 330.016 238.647 330.525 238.351Z" fill="#455A64"/>
<path d="M330.525 244.44L391.293 208.957C391.803 208.661 392.218 208.871 392.218 209.434C392.218 209.997 391.803 210.694 391.293 210.99L330.525 246.473C330.016 246.769 329.601 246.559 329.601 245.996C329.601 245.433 330.016 244.736 330.525 244.44Z" fill="#455A64"/>
<path d="M330.525 250.557L391.293 215.074C391.803 214.778 392.218 214.988 392.218 215.551C392.218 216.114 391.803 216.811 391.293 217.107L330.525 252.59C330.016 252.886 329.601 252.676 329.601 252.113C329.601 251.55 330.016 250.853 330.525 250.557Z" fill="#455A64"/>
<path d="M331.082 262.391L335.074 260.062C335.895 259.585 336.556 259.976 336.556 260.931V265.588C336.556 266.542 335.895 267.707 335.074 268.184L331.082 270.513C330.261 270.99 329.601 270.599 329.601 269.644V264.987C329.601 264.033 330.261 262.868 331.082 262.391Z" fill="#03967b"/>
<path d="M341.888 258.115L366.01 244.029C367.039 243.428 367.86 243.857 367.86 244.974C367.86 246.091 367.029 247.493 366.01 248.085L341.888 262.172C340.859 262.773 340.038 262.343 340.038 261.227C340.038 260.11 340.869 258.707 341.888 258.115Z" fill="#455A64"/>
<path d="M330.525 276.945L391.293 241.462C391.803 241.166 392.218 241.376 392.218 241.939C392.218 242.503 391.803 243.199 391.293 243.495L330.525 278.978C330.016 279.274 329.601 279.064 329.601 278.501C329.601 277.938 330.016 277.241 330.525 276.945Z" fill="#455A64"/>
<path d="M330.525 283.034L391.293 247.551C391.803 247.255 392.218 247.465 392.218 248.028C392.218 248.591 391.803 249.288 391.293 249.584L330.525 285.067C330.016 285.363 329.601 285.153 329.601 284.59C329.601 284.027 330.016 283.33 330.525 283.034Z" fill="#455A64"/>
<path d="M330.525 289.123L391.293 253.64C391.803 253.344 392.218 253.554 392.218 254.117C392.218 254.68 391.803 255.377 391.293 255.673L330.525 291.156C330.016 291.452 329.601 291.242 329.601 290.679C329.601 290.115 330.016 289.419 330.525 289.123Z" fill="#455A64"/>
<path d="M330.525 295.24L391.293 259.757C391.803 259.461 392.218 259.671 392.218 260.234C392.218 260.797 391.803 261.494 391.293 261.79L330.525 297.273C330.016 297.569 329.601 297.359 329.601 296.796C329.601 296.233 330.016 295.536 330.525 295.24Z" fill="#455A64"/>
<path d="M336.764 304.145L340.756 301.817C341.577 301.339 342.238 301.731 342.238 302.685V307.342C342.238 308.297 341.577 309.461 340.756 309.938L336.764 312.267C335.943 312.744 335.282 312.353 335.282 311.398V306.741C335.282 305.787 335.943 304.622 336.764 304.145Z" fill="#03967b"/>
<path d="M330.525 319.978L346.994 310.368C347.503 310.072 347.919 310.282 347.919 310.845C347.919 311.408 347.503 312.104 346.994 312.4L330.525 322.011C330.016 322.307 329.601 322.097 329.601 321.534C329.601 320.97 330.016 320.274 330.525 319.978Z" fill="#455A64"/>
<path d="M358.913 291.204L362.905 288.875C363.726 288.398 364.387 288.789 364.387 289.744V294.401C364.387 295.355 363.726 296.52 362.905 296.997L358.913 299.326C358.092 299.803 357.432 299.421 357.432 298.457V293.8C357.432 292.846 358.092 291.681 358.913 291.204Z" fill="#03967b"/>
<path d="M352.675 307.037L369.143 297.426C369.653 297.131 370.068 297.34 370.068 297.904C370.068 298.467 369.653 299.163 369.143 299.459L352.675 309.07C352.165 309.365 351.75 309.155 351.75 308.592C351.75 308.029 352.165 307.333 352.675 307.037Z" fill="#455A64"/>
<path d="M381.064 278.263L385.056 275.934C385.877 275.457 386.537 275.848 386.537 276.802V281.46C386.537 282.414 385.877 283.578 385.056 284.056L381.064 286.384C380.243 286.861 379.582 286.47 379.582 285.516V280.858C379.582 279.904 380.243 278.74 381.064 278.263Z" fill="#03967b"/>
<path d="M374.825 294.095L391.294 284.485C391.803 284.189 392.219 284.399 392.219 284.962C392.219 285.525 391.803 286.222 391.294 286.518L374.825 296.128C374.316 296.424 373.9 296.214 373.9 295.651C373.9 295.088 374.316 294.391 374.825 294.095Z" fill="#455A64"/>
<path d="M330.525 323.948L346.994 314.338C347.503 314.042 347.919 314.252 347.919 314.815C347.919 315.378 347.503 316.075 346.994 316.371L330.525 325.981C330.016 326.277 329.601 326.067 329.601 325.504C329.601 324.941 330.016 324.244 330.525 323.948Z" fill="#455A64"/>
<path d="M352.675 311.007L369.143 301.396C369.653 301.1 370.068 301.31 370.068 301.873C370.068 302.436 369.653 303.133 369.143 303.429L352.675 313.039C352.165 313.335 351.75 313.125 351.75 312.562C351.75 311.999 352.165 311.302 352.675 311.007Z" fill="#455A64"/>
<path d="M374.825 298.066L391.294 288.455C391.803 288.16 392.219 288.37 392.219 288.933C392.219 289.496 391.803 290.192 391.294 290.488L374.825 300.099C374.316 300.394 373.9 300.185 373.9 299.621C373.9 299.058 374.316 298.362 374.825 298.066Z" fill="#455A64"/>
<path d="M330.525 327.909L346.994 318.298C347.503 318.002 347.919 318.212 347.919 318.775C347.919 319.338 347.503 320.035 346.994 320.331L330.525 329.941C330.016 330.237 329.601 330.027 329.601 329.464C329.601 328.901 330.016 328.204 330.525 327.909Z" fill="#455A64"/>
<path d="M352.675 314.967L369.143 305.357C369.653 305.061 370.068 305.271 370.068 305.834C370.068 306.397 369.653 307.094 369.143 307.39L352.675 317C352.165 317.296 351.75 317.086 351.75 316.523C351.75 315.96 352.165 315.263 352.675 314.967Z" fill="#455A64"/>
<path d="M374.825 302.026L391.294 292.416C391.803 292.12 392.219 292.33 392.219 292.893C392.219 293.456 391.803 294.153 391.294 294.449L374.825 304.059C374.316 304.355 373.9 304.145 373.9 303.582C373.9 303.019 374.316 302.322 374.825 302.026Z" fill="#455A64"/>
<path d="M336.764 337.509L340.756 335.181C341.577 334.704 342.238 335.095 342.238 336.049V340.707C342.238 341.661 341.577 342.825 340.756 343.302L336.764 345.631C335.943 346.108 335.282 345.717 335.282 344.763V340.105C335.282 339.151 335.943 337.987 336.764 337.509Z" fill="#03967b"/>
<path d="M330.525 353.342L346.994 343.732C347.503 343.436 347.919 343.646 347.919 344.209C347.919 344.772 347.503 345.469 346.994 345.765L330.525 355.375C330.016 355.671 329.601 355.461 329.601 354.898C329.601 354.335 330.016 353.638 330.525 353.342Z" fill="#455A64"/>
<path d="M358.913 324.568L362.905 322.24C363.726 321.762 364.387 322.154 364.387 323.108V327.765C364.387 328.72 363.726 329.884 362.905 330.361L358.913 332.69C358.092 333.167 357.432 332.776 357.432 331.821V327.164C357.432 326.21 358.092 325.045 358.913 324.568Z" fill="#03967b"/>
<path d="M352.675 340.392L369.143 330.781C369.653 330.485 370.068 330.695 370.068 331.259C370.068 331.822 369.653 332.518 369.143 332.814L352.675 342.425C352.165 342.72 351.75 342.51 351.75 341.947C351.75 341.384 352.165 340.688 352.675 340.392Z" fill="#455A64"/>
<path d="M381.064 311.627L385.056 309.299C385.877 308.822 386.537 309.213 386.537 310.167V314.824C386.537 315.779 385.877 316.943 385.056 317.42L381.064 319.749C380.243 320.226 379.582 319.835 379.582 318.88V314.223C379.582 313.269 380.243 312.105 381.064 311.627Z" fill="#03967b"/>
<path d="M374.825 327.451L391.294 317.84C391.803 317.544 392.219 317.754 392.219 318.317C392.219 318.88 391.803 319.577 391.294 319.873L374.825 329.483C374.316 329.779 373.9 329.569 373.9 329.006C373.9 328.443 374.316 327.746 374.825 327.451Z" fill="#455A64"/>
<path d="M330.525 357.303L346.994 347.693C347.503 347.397 347.919 347.607 347.919 348.17C347.919 348.733 347.503 349.43 346.994 349.725L330.525 359.336C330.016 359.632 329.601 359.422 329.601 358.859C329.601 358.296 330.016 357.599 330.525 357.303Z" fill="#455A64"/>
<path d="M352.675 344.362L369.143 334.751C369.653 334.455 370.068 334.665 370.068 335.228C370.068 335.792 369.653 336.488 369.143 336.784L352.675 346.395C352.165 346.69 351.75 346.48 351.75 345.917C351.75 345.354 352.165 344.658 352.675 344.362Z" fill="#455A64"/>
<path d="M374.825 331.421L391.294 321.81C391.803 321.514 392.219 321.724 392.219 322.287C392.219 322.85 391.803 323.547 391.294 323.843L374.825 333.453C374.316 333.749 373.9 333.539 373.9 332.976C373.9 332.413 374.316 331.716 374.825 331.421Z" fill="#455A64"/>
<path d="M330.525 361.273L346.994 351.663C347.503 351.367 347.919 351.577 347.919 352.14C347.919 352.703 347.503 353.4 346.994 353.695L330.525 363.306C330.016 363.602 329.601 363.392 329.601 362.829C329.601 362.266 330.016 361.569 330.525 361.273Z" fill="#455A64"/>
<path d="M352.675 348.332L369.143 338.722C369.653 338.426 370.068 338.636 370.068 339.199C370.068 339.762 369.653 340.458 369.143 340.754L352.675 350.365C352.165 350.661 351.75 350.451 351.75 349.888C351.75 349.325 352.165 348.628 352.675 348.332Z" fill="#455A64"/>
<path d="M374.825 335.391L391.294 325.78C391.803 325.485 392.219 325.694 392.219 326.258C392.219 326.821 391.803 327.517 391.294 327.813L374.825 337.424C374.316 337.719 373.9 337.509 373.9 336.946C373.9 336.383 374.316 335.687 374.825 335.391Z" fill="#455A64"/>
<path d="M293.209 191.101C302.836 185.479 310.64 190.032 310.64 201.284C310.64 212.536 302.836 226.202 293.209 231.823C283.583 237.444 275.778 232.892 275.778 221.64C275.778 210.388 283.583 196.722 293.209 191.101Z" fill="#E0E0E0"/>
<path d="M293.21 199.957C296.333 198.134 298.863 199.613 298.863 203.259C298.863 206.905 296.333 211.343 293.21 213.165C290.086 214.988 287.557 213.509 287.557 209.863C287.557 206.218 290.086 201.78 293.21 199.957Z" fill="#FAFAFA"/>
<path d="M304.232 219.407C304.232 213.414 300.07 210.98 294.936 213.977L291.728 215.847C286.594 218.844 282.432 226.135 282.432 232.129V233.742C285.395 234.734 289.132 234.2 293.2 231.823C297.381 229.38 301.222 225.42 304.223 220.791V219.398L304.232 219.407Z" fill="#FAFAFA"/>
<path d="M282.883 260.779L307.005 246.692C308.034 246.091 308.855 246.52 308.855 247.637C308.855 248.754 308.024 250.157 307.005 250.748L282.883 264.835C281.854 265.436 281.033 265.006 281.033 263.89C281.033 262.764 281.864 261.37 282.883 260.779Z" fill="#E0E0E0"/>
</svg>
