<svg width="218" height="200" viewBox="0 0 218 200" fill="none" xmlns="http://www.w3.org/2000/svg">
<g clip-path="url(#clip0_208_42)">
<path d="M108.998 199.995C169.195 199.995 217.995 171.31 217.995 135.924C217.995 100.539 169.195 71.8538 108.998 71.8538C48.7999 71.8538 0 100.539 0 135.924C0 171.31 48.7999 199.995 108.998 199.995Z" fill="#F5F5F5"/>
<path d="M32.87 135.978C39.1786 139.62 39.1786 145.529 32.87 149.176C26.5614 152.818 16.335 152.818 10.0312 149.176C3.72266 145.533 3.72266 139.625 10.0312 135.978C16.3398 132.335 26.5663 132.335 32.87 135.978Z" fill="#E0E0E0"/>
<path d="M46.712 144.357L103.923 177.413C105.09 178.086 106.983 178.086 108.149 177.413L204.998 121.452C206.164 120.778 206.164 119.684 204.998 119.011L147.786 85.9548C146.62 85.281 144.727 85.281 143.561 85.9548L46.712 141.915C45.5459 142.589 45.5459 143.683 46.712 144.357Z" fill="#E0E0E0"/>
<path d="M191.102 109.597L187.116 107.292C187.116 107.292 184.744 97.4292 185.691 88.5524C187.018 76.0723 193.732 70.6378 198.352 72.4542C201.426 73.6651 202.377 77.1611 197.21 84.5926C194.161 88.9772 190.419 98.1128 191.102 109.597Z" fill="#03967b"/>
<g opacity="0.3">
<path d="M191.102 109.597L187.116 107.292C187.116 107.292 184.744 97.4292 185.691 88.5524C187.018 76.0723 193.732 70.6378 198.352 72.4542C201.426 73.6651 202.377 77.1611 197.21 84.5926C194.161 88.9772 190.419 98.1128 191.102 109.597Z" fill="black"/>
</g>
<path d="M189.448 104.753C189.448 104.753 189.472 104.753 189.487 104.753C189.638 104.724 189.736 104.582 189.706 104.431C187.521 92.9226 191.541 79.9834 196.518 74.6027C196.62 74.4904 196.615 74.3146 196.503 74.2121C196.391 74.1095 196.215 74.1144 196.113 74.2267C191.048 79.7051 186.95 92.8542 189.165 104.534C189.189 104.67 189.316 104.763 189.448 104.758V104.753Z" fill="white"/>
<path d="M201.543 115.632C202.172 115.954 203.846 114.519 204.314 114.167C205.115 113.571 205.744 112.751 206.144 111.838C206.608 110.779 206.686 109.66 206.466 108.523C206.354 107.932 206.159 107.361 205.964 106.794C205.773 106.238 205.583 105.681 205.393 105.119C205.202 104.568 205.012 104.001 205.056 103.42C205.144 102.253 206.134 101.384 207.037 100.637C208.032 99.8071 209.062 98.728 208.984 97.3316C208.925 96.2525 208.315 95.2808 207.608 94.4654C206.895 93.6549 206.066 92.9469 205.417 92.0827C204.949 91.4626 204.573 90.7204 204.602 89.9441C204.622 89.4607 204.797 88.9968 205.007 88.5623C205.456 87.6248 206.061 86.7605 206.354 85.7645C206.647 84.7684 206.534 83.5575 205.739 82.8934C205.085 82.3515 204.149 82.3173 203.304 82.4149C202.524 82.5077 201.777 82.8983 201.109 83.3134C198.952 84.661 197.82 87.3513 195.513 88.4207C194.625 88.8308 193.634 88.9626 192.697 89.2605C191.766 89.5583 190.824 90.0905 190.429 90.989C189.653 92.7614 191.361 94.8072 190.848 96.6675C190.395 98.3179 188.848 99.0161 188.038 100.525C187.682 101.184 187.633 101.926 187.731 102.668C187.901 103.923 188.131 104.841 188.804 106.213C189.36 107.346 190.931 109.489 190.931 109.489C190.931 109.489 201.441 115.568 201.538 115.617L201.543 115.632Z" fill="#03967b"/>
<g opacity="0.15">
<path d="M201.543 115.632C202.172 115.954 203.846 114.519 204.314 114.167C205.115 113.571 205.744 112.751 206.144 111.838C206.608 110.779 206.686 109.66 206.466 108.523C206.354 107.932 206.159 107.361 205.964 106.794C205.773 106.238 205.583 105.681 205.393 105.119C205.202 104.568 205.012 104.001 205.056 103.42C205.144 102.253 206.134 101.384 207.037 100.637C208.032 99.8071 209.062 98.728 208.984 97.3316C208.925 96.2525 208.315 95.2808 207.608 94.4654C206.895 93.6549 206.066 92.9469 205.417 92.0827C204.949 91.4626 204.573 90.7204 204.602 89.9441C204.622 89.4607 204.797 88.9968 205.007 88.5623C205.456 87.6248 206.061 86.7605 206.354 85.7645C206.647 84.7684 206.534 83.5575 205.739 82.8934C205.085 82.3515 204.149 82.3173 203.304 82.4149C202.524 82.5077 201.777 82.8983 201.109 83.3134C198.952 84.661 197.82 87.3513 195.513 88.4207C194.625 88.8308 193.634 88.9626 192.697 89.2605C191.766 89.5583 190.824 90.0905 190.429 90.989C189.653 92.7614 191.361 94.8072 190.848 96.6675C190.395 98.3179 188.848 99.0161 188.038 100.525C187.682 101.184 187.633 101.926 187.731 102.668C187.901 103.923 188.131 104.841 188.804 106.213C189.36 107.346 190.931 109.489 190.931 109.489C190.931 109.489 201.441 115.568 201.538 115.617L201.543 115.632Z" fill="black"/>
</g>
<path d="M195.444 112.453H195.454C195.61 112.439 195.722 112.302 195.708 112.15C194.698 101.203 199.255 88.8308 202.831 85.1199C202.939 85.0125 202.934 84.8367 202.826 84.7293C202.714 84.6219 202.543 84.6267 202.436 84.7342C198.787 88.5183 194.137 101.096 195.157 112.199C195.171 112.346 195.298 112.458 195.444 112.448V112.453Z" fill="white"/>
<path d="M196.528 98.9525C196.557 98.9525 196.581 98.9476 196.61 98.9379C200.079 97.6684 204.456 97.2582 204.5 97.2533C204.651 97.2387 204.763 97.102 204.749 96.9506C204.734 96.7992 204.612 96.6821 204.446 96.7016C204.402 96.7016 199.953 97.1264 196.415 98.4203C196.274 98.474 196.196 98.6303 196.249 98.7767C196.293 98.8939 196.406 98.9623 196.523 98.9574L196.528 98.9525Z" fill="white"/>
<path d="M48.6685 138.278C48.6685 139.723 49.7516 141.52 51.0836 142.287L103.626 172.652C104.958 173.424 107.119 173.424 108.451 172.652L200.972 119.196C202.304 118.425 203.387 116.633 203.387 115.188C203.387 113.742 202.309 111.946 200.972 111.179L148.43 80.8135C147.098 80.042 144.937 80.042 143.605 80.8135L51.0836 134.269C49.7516 135.041 48.6685 136.833 48.6685 138.278Z" fill="#37474F"/>
<path d="M51.0786 137.057L103.621 167.423C104.953 168.194 107.114 168.194 108.446 167.423L200.967 113.967C202.299 113.195 202.299 111.95 200.967 111.179L148.425 80.8135C147.093 80.042 144.932 80.042 143.6 80.8135L51.0786 134.269C49.7466 135.041 49.7466 136.286 51.0786 137.057Z" fill="#455A64"/>
<path d="M106.036 168.004V173.228C105.163 173.228 104.285 173.038 103.621 172.652L51.0787 142.286C49.7467 141.515 48.6636 139.723 48.6636 138.278C48.6636 136.92 49.615 135.26 50.8299 134.425C49.7467 135.202 49.8345 136.339 51.0738 137.057L103.616 167.423C104.28 167.808 105.153 168.004 106.031 168.004H106.036Z" fill="#263238"/>
<path d="M46.4045 134.357C45.1555 133.634 45.2238 132.414 45.2238 130.876V58.2457C45.2238 56.7076 46.3021 54.8327 47.6389 54.0612L140.155 0.605488C141.487 -0.165977 143.58 -0.205039 144.834 0.5176C146.083 1.24024 146.015 2.46091 146.015 3.99896V76.629C146.015 78.1671 144.937 80.042 143.6 80.8135L51.0786 134.269C49.7467 135.041 47.6536 135.08 46.3997 134.357H46.4045Z" fill="#37474F"/>
<path d="M146.015 3.99896C146.015 2.46091 144.932 1.84081 143.6 2.60251L51.0785 56.0631C50.4101 56.4488 49.8051 57.1129 49.3757 57.8697L45.9312 55.8629C46.3703 55.1061 46.9753 54.4421 47.6388 54.0563L140.155 0.605488C141.487 -0.165977 143.58 -0.205039 144.834 0.5176C146.083 1.24024 146.02 2.46091 146.02 3.99896H146.015Z" fill="#455A64"/>
<path d="M50.7957 134.416C49.4637 135.041 47.5706 135.031 46.4045 134.352C45.1555 133.635 45.2238 132.414 45.2238 130.871V58.2409C45.2238 57.4694 45.4922 56.6199 45.9313 55.863L49.3759 57.8601C48.9416 58.6218 48.6684 59.4713 48.6684 60.2428V132.873C48.6684 134.299 49.6003 134.943 50.7957 134.411V134.416Z" fill="#263238"/>
<path d="M52.3763 58.8511L141.58 7.32406C142.38 6.8602 143.029 7.23617 143.029 8.159V71.5608C143.029 72.4836 142.38 73.6066 141.58 74.0705L52.3763 125.598C51.5762 126.061 50.9272 125.685 50.9272 124.763V61.3608C50.9272 60.438 51.5762 59.315 52.3763 58.8511Z" fill="#FAFAFA"/>
<path d="M57.7582 134.411L143.639 84.793C144.307 84.4072 145.386 84.4072 146.054 84.793L147.484 85.5791C148.152 85.9648 148.152 86.5898 147.484 86.9755L61.5931 136.589C60.9247 136.974 59.8464 136.974 59.178 136.589L57.763 135.812C57.0946 135.426 57.0946 134.802 57.763 134.416L57.7582 134.411Z" fill="#263238"/>
<path d="M64.496 138.419L150.377 88.8015C151.045 88.4157 152.031 88.362 152.582 88.6794L174.933 101.594C175.484 101.912 175.392 102.483 174.723 102.869L88.9448 152.423C88.2764 152.809 87.2908 152.862 86.7395 152.545L64.2911 139.689C63.7398 139.372 63.8325 138.805 64.496 138.419Z" fill="#263238"/>
<path d="M138.911 109.641L141.599 108.088C141.712 108.02 141.726 107.922 141.624 107.864L139.053 106.379C138.95 106.321 138.774 106.326 138.662 106.394L135.974 107.947C135.862 108.01 135.847 108.113 135.949 108.171L138.521 109.656C138.623 109.714 138.799 109.709 138.911 109.641ZM134.983 104.265L132.295 105.818C132.183 105.886 132.173 105.984 132.271 106.042L134.842 107.527C134.944 107.585 135.12 107.58 135.232 107.512L137.921 105.959C138.033 105.891 138.047 105.793 137.945 105.735L135.374 104.25C135.271 104.192 135.096 104.197 134.983 104.265ZM126.299 109.284L121.747 111.911C121.634 111.975 121.62 112.077 121.722 112.136L124.293 113.62C124.396 113.679 124.572 113.674 124.684 113.606L129.236 110.979C129.348 110.915 129.363 110.813 129.26 110.754L126.689 109.27C126.587 109.211 126.411 109.216 126.299 109.284ZM131.056 106.536L128.367 108.088C128.255 108.152 128.241 108.254 128.343 108.313L130.914 109.797C131.017 109.856 131.192 109.851 131.305 109.783L133.993 108.23C134.105 108.161 134.12 108.064 134.017 108.005L131.446 106.521C131.344 106.462 131.168 106.467 131.056 106.536ZM120.507 112.629L117.819 114.182C117.707 114.25 117.692 114.348 117.795 114.406L120.366 115.891C120.468 115.949 120.644 115.944 120.756 115.876L123.444 114.323C123.557 114.26 123.566 114.157 123.469 114.099L120.898 112.614C120.795 112.556 120.62 112.561 120.507 112.629ZM116.58 114.9L113.891 116.452C113.779 116.521 113.765 116.618 113.867 116.677L116.438 118.161C116.541 118.22 116.716 118.215 116.829 118.147L119.517 116.594C119.629 116.526 119.644 116.428 119.541 116.369L116.97 114.885C116.868 114.826 116.692 114.831 116.58 114.9ZM126.665 120.964L129.353 119.411C129.465 119.348 129.48 119.245 129.377 119.187L126.806 117.702C126.704 117.644 126.528 117.649 126.416 117.717L123.727 119.27C123.615 119.338 123.601 119.436 123.703 119.494L126.274 120.979C126.377 121.037 126.552 121.032 126.665 120.964ZM122.737 123.234L125.425 121.682C125.538 121.613 125.552 121.516 125.45 121.457L122.879 119.973C122.776 119.914 122.6 119.919 122.488 119.987L119.8 121.54C119.688 121.608 119.673 121.706 119.775 121.765L122.347 123.249C122.449 123.308 122.625 123.303 122.737 123.234ZM118.809 125.505L121.498 123.952C121.61 123.889 121.625 123.786 121.522 123.727L118.951 122.243C118.848 122.185 118.673 122.189 118.561 122.258L115.872 123.811C115.76 123.879 115.745 123.977 115.848 124.035L118.419 125.519C118.522 125.578 118.697 125.573 118.809 125.505ZM114.882 127.775L117.57 126.223C117.682 126.154 117.697 126.057 117.595 125.998L115.023 124.514C114.921 124.455 114.745 124.46 114.633 124.528L111.945 126.081C111.832 126.149 111.818 126.247 111.92 126.306L114.491 127.79C114.594 127.848 114.77 127.844 114.882 127.775ZM134.993 111.906L137.682 110.354C137.794 110.29 137.808 110.188 137.706 110.129L135.135 108.645C135.032 108.586 134.857 108.591 134.744 108.66L132.056 110.212C131.944 110.281 131.929 110.378 132.032 110.437L134.603 111.921C134.705 111.98 134.881 111.975 134.993 111.906ZM130.602 118.689L136.598 115.222C136.711 115.153 136.725 115.056 136.623 114.997L130.378 111.389C130.275 111.33 130.1 111.335 129.987 111.404L126.884 113.196C126.772 113.264 126.757 113.362 126.86 113.42L130.168 115.329C130.27 115.388 130.261 115.49 130.143 115.554L127.66 116.989C127.548 117.053 127.533 117.155 127.636 117.214L130.207 118.698C130.309 118.757 130.485 118.752 130.597 118.684L130.602 118.689ZM112.657 117.165L109.969 118.718C109.856 118.786 109.842 118.884 109.944 118.942L112.515 120.427C112.618 120.485 112.794 120.481 112.906 120.412L115.594 118.859C115.706 118.791 115.721 118.693 115.619 118.635L113.047 117.151C112.945 117.092 112.769 117.097 112.657 117.165ZM108.729 119.436L106.041 120.988C105.929 121.057 105.914 121.154 106.017 121.213L108.588 122.697C108.69 122.756 108.866 122.751 108.978 122.683L111.667 121.13C111.779 121.066 111.793 120.964 111.691 120.905L109.12 119.421C109.017 119.362 108.842 119.367 108.729 119.436ZM86.9835 143.678C87.086 143.737 87.2616 143.732 87.3738 143.664L90.0622 142.111C90.1744 142.042 90.189 141.945 90.0866 141.886L87.5153 140.402C87.4129 140.343 87.2372 140.348 87.125 140.417L84.4366 141.969C84.3244 142.038 84.3098 142.135 84.4123 142.194L86.9835 143.678ZM77.2889 137.599L74.6005 139.152C74.4883 139.22 74.4737 139.318 74.5761 139.377L77.1474 140.861C77.2498 140.919 77.4255 140.915 77.5377 140.846L80.226 139.294C80.3383 139.225 80.3529 139.128 80.2504 139.069L77.6792 137.585C77.5767 137.526 77.4011 137.531 77.2889 137.599ZM82.2704 142.15C82.3728 142.208 82.5485 142.204 82.6607 142.135L85.349 140.583C85.4612 140.514 85.4759 140.417 85.3734 140.358L82.8022 138.874C82.6997 138.815 82.5241 138.82 82.4119 138.888L79.7235 140.441C79.6113 140.509 79.5967 140.607 79.6991 140.666L82.2704 142.15ZM93.1116 144.591L95.7999 143.039C95.9121 142.97 95.9268 142.873 95.8243 142.814L93.2531 141.33C93.1506 141.271 92.975 141.276 92.8627 141.344L90.1744 142.897C90.0622 142.96 90.0475 143.063 90.15 143.122L92.7212 144.606C92.8237 144.664 92.9993 144.66 93.1116 144.591ZM88.7936 146.876C88.8961 146.935 89.0717 146.93 89.1839 146.862L91.8723 145.309C91.9845 145.241 91.9992 145.143 91.8967 145.084L89.3254 143.6C89.223 143.541 89.0473 143.546 88.9351 143.615L86.2468 145.167C86.1346 145.236 86.1199 145.333 86.2224 145.392L88.7936 146.876ZM81.2165 135.329L78.5281 136.881C78.4159 136.95 78.4013 137.047 78.5037 137.106L81.075 138.59C81.1775 138.649 81.3531 138.644 81.4653 138.576L84.1537 137.023C84.2659 136.955 84.2805 136.857 84.1781 136.798L81.6068 135.314C81.5044 135.256 81.3287 135.26 81.2165 135.329ZM100.864 123.977L98.176 125.529C98.0638 125.598 98.0491 125.695 98.1516 125.754L100.723 127.238C100.825 127.297 101.001 127.292 101.113 127.224L103.802 125.671C103.914 125.607 103.928 125.505 103.826 125.446L101.255 123.962C101.152 123.903 100.977 123.908 100.864 123.977ZM85.1441 133.058L82.4558 134.611C82.3435 134.674 82.3289 134.777 82.4314 134.836L85.0026 136.32C85.1051 136.379 85.2807 136.374 85.3929 136.305L88.0813 134.753C88.1935 134.684 88.2081 134.587 88.1057 134.528L85.5344 133.044C85.432 132.985 85.2563 132.99 85.1441 133.058ZM104.792 121.706L102.104 123.259C101.991 123.322 101.977 123.425 102.079 123.483L104.65 124.968C104.753 125.026 104.929 125.021 105.041 124.953L107.729 123.4C107.841 123.332 107.856 123.234 107.754 123.176L105.182 121.691C105.08 121.633 104.904 121.638 104.792 121.706ZM96.9318 126.247L94.2435 127.8C94.1313 127.868 94.1166 127.966 94.2191 128.024L96.7904 129.509C96.8928 129.567 97.0685 129.562 97.1807 129.494L99.869 127.941C99.9812 127.878 99.9959 127.775 99.8934 127.717L97.3222 126.232C97.2197 126.174 97.0441 126.179 96.9318 126.247ZM93.0042 128.517L90.3159 130.07C90.2037 130.134 90.189 130.236 90.2915 130.295L92.8627 131.779C92.9652 131.838 93.1408 131.833 93.2531 131.764L95.9414 130.212C96.0536 130.143 96.0683 130.046 95.9658 129.987L93.3946 128.503C93.2921 128.444 93.1164 128.449 93.0042 128.517ZM89.0766 130.788L86.3883 132.341C86.276 132.409 86.2614 132.507 86.3639 132.565L88.9351 134.05C89.0376 134.108 89.2132 134.103 89.3254 134.035L92.0138 132.482C92.126 132.414 92.1406 132.316 92.0382 132.258L89.4669 130.773C89.3645 130.715 89.1888 130.72 89.0766 130.788ZM107.017 132.311L109.705 130.759C109.817 130.69 109.832 130.593 109.73 130.534L107.158 129.05C107.056 128.991 106.88 128.996 106.768 129.064L104.08 130.617C103.967 130.685 103.953 130.783 104.055 130.842L106.626 132.326C106.729 132.385 106.905 132.38 107.017 132.311ZM143.678 99.2359L140.99 100.789C140.877 100.857 140.863 100.955 140.965 101.013L143.536 102.498C143.639 102.556 143.814 102.551 143.927 102.483L146.615 100.93C146.727 100.862 146.737 100.764 146.639 100.706L144.068 99.2213C143.966 99.1627 143.79 99.1676 143.678 99.2359ZM138.921 101.985L136.232 103.538C136.12 103.601 136.106 103.704 136.208 103.762L138.779 105.247C138.882 105.305 139.057 105.3 139.17 105.232L141.858 103.679C141.97 103.611 141.985 103.513 141.882 103.455L139.311 101.97C139.209 101.912 139.033 101.917 138.921 101.985ZM147.605 96.9655L144.917 98.5182C144.805 98.5865 144.79 98.6842 144.893 98.7428L147.464 100.227C147.566 100.286 147.742 100.281 147.854 100.212L150.543 98.6597C150.655 98.5914 150.67 98.4937 150.567 98.4351L147.996 96.9508C147.893 96.8922 147.718 96.8971 147.605 96.9655ZM125.884 117.16L128.572 115.608C128.685 115.539 128.699 115.442 128.597 115.383L126.026 113.899C125.923 113.84 125.747 113.845 125.635 113.913L122.947 115.466C122.835 115.534 122.82 115.632 122.922 115.691L125.494 117.175C125.596 117.234 125.772 117.229 125.884 117.16ZM151.928 94.6804C151.826 94.6218 151.65 94.6266 151.538 94.695L148.85 96.2477C148.737 96.3161 148.723 96.4137 148.825 96.4723L151.396 97.9566C151.499 98.0152 151.675 98.0103 151.787 97.942L154.475 96.3893C154.587 96.3209 154.602 96.2233 154.5 96.1647L151.928 94.6804ZM110.944 130.036L113.633 128.483C113.745 128.415 113.76 128.317 113.657 128.259L111.086 126.774C110.983 126.716 110.808 126.721 110.696 126.789L108.007 128.342C107.895 128.405 107.88 128.508 107.983 128.566L110.554 130.051C110.657 130.109 110.832 130.104 110.944 130.036ZM159.14 102.19L161.828 100.637C161.94 100.569 161.955 100.471 161.852 100.413L159.281 98.9283C159.179 98.8697 159.003 98.8746 158.891 98.9429L156.202 100.496C156.09 100.559 156.075 100.662 156.178 100.72L158.749 102.205C158.852 102.263 159.027 102.258 159.14 102.19ZM151.533 102.336L154.221 100.784C154.334 100.72 154.348 100.618 154.246 100.559L151.675 99.0748C151.572 99.0162 151.396 99.0211 151.284 99.0894L148.596 100.642C148.484 100.71 148.469 100.808 148.572 100.867L151.143 102.351C151.245 102.41 151.421 102.405 151.533 102.336ZM155.602 96.7994C155.5 96.7409 155.324 96.7457 155.212 96.8141L152.524 98.3668C152.411 98.4303 152.397 98.5328 152.499 98.5914L155.07 100.076C155.173 100.134 155.348 100.129 155.461 100.061L158.149 98.5084C158.261 98.44 158.276 98.3424 158.173 98.2838L155.602 96.7994ZM156.432 96.3209L162.677 99.9293C162.779 99.9878 162.955 99.983 163.067 99.9146L165.755 98.3619C165.868 98.2935 165.882 98.1959 165.78 98.1373L159.535 94.529C159.432 94.4704 159.257 94.4753 159.144 94.5436L156.456 96.0963C156.344 96.1647 156.329 96.2623 156.432 96.3209ZM147.352 101.355L144.663 102.908C144.551 102.971 144.537 103.074 144.639 103.132L147.21 104.617C147.313 104.675 147.488 104.67 147.601 104.602L150.289 103.049C150.401 102.981 150.416 102.883 150.313 102.825L147.742 101.34C147.64 101.282 147.464 101.287 147.352 101.355ZM117.775 118.444L115.087 119.997C114.975 120.065 114.96 120.163 115.062 120.222L117.634 121.706C117.736 121.765 117.912 121.76 118.024 121.691L120.712 120.139C120.824 120.07 120.839 119.973 120.737 119.914L118.165 118.43C118.063 118.371 117.887 118.376 117.775 118.444ZM154.817 104.475C154.919 104.534 155.095 104.529 155.207 104.46L157.895 102.908C158.008 102.839 158.022 102.742 157.92 102.683L155.348 101.199C155.246 101.14 155.07 101.145 154.958 101.213L152.27 102.766C152.158 102.83 152.143 102.932 152.245 102.991L154.817 104.475ZM121.703 116.174L119.014 117.727C118.902 117.795 118.887 117.893 118.99 117.951L121.561 119.436C121.664 119.494 121.839 119.489 121.952 119.421L124.64 117.868C124.752 117.8 124.767 117.702 124.664 117.644L122.093 116.159C121.991 116.101 121.815 116.106 121.703 116.174ZM90.9014 141.403C91.0038 141.461 91.1795 141.457 91.2917 141.388L93.98 139.836C94.0923 139.767 94.1069 139.669 94.0044 139.611L91.4332 138.127C91.3307 138.068 91.1551 138.073 91.0429 138.141L88.3545 139.694C88.2423 139.762 88.2277 139.86 88.3301 139.919L90.9014 141.403ZM86.3297 136.613L83.6414 138.166C83.5291 138.229 83.5145 138.332 83.617 138.39L86.1882 139.875C86.2907 139.933 86.4663 139.928 86.5785 139.86L89.2669 138.307C89.3791 138.239 89.3937 138.141 89.2913 138.083L86.72 136.598C86.6176 136.54 86.4419 136.545 86.3297 136.613ZM95.2193 139.123L97.9077 137.57C98.0199 137.502 98.0345 137.404 97.9321 137.345L95.3608 135.861C95.2583 135.802 95.0827 135.807 94.9705 135.876L92.2821 137.428C92.1699 137.497 92.1553 137.594 92.2577 137.653L94.829 139.137C94.9314 139.196 95.1071 139.191 95.2193 139.123ZM99.1469 136.852L101.835 135.299C101.947 135.231 101.962 135.133 101.86 135.075L99.2884 133.591C99.186 133.532 99.0103 133.537 98.8981 133.605L96.2098 135.158C96.0975 135.226 96.0829 135.324 96.1854 135.382L98.7566 136.867C98.8591 136.925 99.0347 136.921 99.1469 136.852ZM103.075 134.582L105.763 133.029C105.875 132.961 105.89 132.863 105.787 132.804L103.216 131.32C103.114 131.261 102.938 131.266 102.826 131.335L100.137 132.887C100.025 132.956 100.011 133.053 100.113 133.112L102.684 134.596C102.787 134.655 102.962 134.65 103.075 134.582ZM90.2525 134.347L87.5641 135.9C87.4519 135.968 87.4373 136.066 87.5397 136.125L90.111 137.609C90.2134 137.668 90.3891 137.663 90.5013 137.594L93.1896 136.042C93.3018 135.973 93.3165 135.876 93.214 135.817L90.6428 134.333C90.5403 134.274 90.3647 134.279 90.2525 134.347ZM94.1801 132.077L91.4917 133.63C91.3795 133.698 91.3649 133.796 91.4673 133.854L94.0386 135.339C94.141 135.397 94.3167 135.392 94.4289 135.324L97.1173 133.771C97.2295 133.708 97.2441 133.605 97.1416 133.547L94.5704 132.062C94.4679 132.004 94.2923 132.009 94.1801 132.077ZM109.9 122.995L107.212 124.548C107.1 124.616 107.085 124.714 107.188 124.772L109.759 126.257C109.861 126.315 110.037 126.31 110.149 126.242L112.837 124.689C112.95 124.621 112.964 124.523 112.862 124.465L110.291 122.98C110.188 122.922 110.013 122.927 109.9 122.995ZM105.973 125.266L103.284 126.818C103.172 126.882 103.157 126.984 103.26 127.043L105.831 128.527C105.934 128.586 106.109 128.581 106.222 128.513L108.91 126.96C109.022 126.891 109.037 126.794 108.934 126.735L106.363 125.251C106.261 125.192 106.085 125.197 105.973 125.266ZM113.833 120.725L111.144 122.277C111.032 122.346 111.018 122.443 111.12 122.502L113.691 123.986C113.794 124.045 113.969 124.04 114.082 123.972L116.77 122.419C116.882 122.355 116.897 122.253 116.794 122.194L114.223 120.71C114.121 120.651 113.945 120.656 113.833 120.725ZM98.1126 129.806L95.4242 131.359C95.312 131.423 95.2974 131.525 95.3998 131.584L97.9711 133.068C98.0735 133.127 98.2492 133.122 98.3614 133.053L101.05 131.501C101.162 131.432 101.177 131.335 101.074 131.276L98.5029 129.792C98.4004 129.733 98.2248 129.738 98.1126 129.806ZM102.04 127.536L99.3518 129.089C99.2396 129.157 99.225 129.255 99.3275 129.313L101.899 130.798C102.001 130.856 102.177 130.851 102.289 130.783L104.977 129.23C105.09 129.162 105.104 129.064 105.002 129.006L102.431 127.521C102.328 127.463 102.152 127.468 102.04 127.536ZM97.0246 142.326L99.7129 140.773C99.8251 140.709 99.8398 140.607 99.7373 140.548L97.166 139.064C97.0636 139.005 96.8879 139.01 96.7757 139.079L94.0874 140.631C93.9752 140.7 93.9605 140.797 94.063 140.856L96.6342 142.34C96.7367 142.399 96.9123 142.394 97.0246 142.326ZM76.3033 141.349L73.7321 139.865C73.6296 139.806 73.454 139.811 73.3417 139.879L70.6534 141.432C70.5412 141.496 70.5265 141.598 70.629 141.657L73.2002 143.141C73.3027 143.2 73.4783 143.195 73.5906 143.126L76.2789 141.574C76.3911 141.505 76.4058 141.408 76.3033 141.349ZM81.4263 142.638L78.855 141.154C78.7526 141.095 78.5769 141.1 78.4647 141.168L74.3273 143.556C74.2151 143.624 74.2004 143.722 74.3029 143.781L76.8742 145.265C76.9766 145.324 77.1523 145.319 77.2645 145.25L81.4019 142.858C81.5141 142.79 81.5287 142.692 81.4263 142.633V142.638ZM72.4635 138.415L69.8923 136.93C69.7898 136.872 69.6142 136.877 69.5019 136.945L66.194 138.859C66.0817 138.922 66.0671 139.025 66.1696 139.084L68.7408 140.568C68.8433 140.627 69.0189 140.622 69.1311 140.553L72.4391 138.639C72.5513 138.576 72.566 138.473 72.4635 138.415ZM75.0006 136.95C75.1031 137.008 75.2787 137.004 75.3909 136.935L78.0793 135.382C78.1915 135.314 78.2061 135.216 78.1037 135.158L75.5324 133.674C75.43 133.615 75.2543 133.62 75.1421 133.688L72.4537 135.241C72.3415 135.309 72.3269 135.407 72.4294 135.465L75.0006 136.95ZM86.1346 144.162L83.5633 142.677C83.4608 142.619 83.2852 142.624 83.173 142.692L78.0012 145.68C77.889 145.748 77.8744 145.846 77.9768 145.905L80.5481 147.389C80.6505 147.448 80.8262 147.443 80.9384 147.374L86.1102 144.386C86.2224 144.318 86.237 144.22 86.1346 144.162ZM87.9495 147.36L85.3783 145.875C85.2758 145.817 85.1002 145.822 84.988 145.89L81.68 147.804C81.5678 147.872 81.5531 147.97 81.6556 148.029L84.2269 149.513C84.3293 149.572 84.505 149.567 84.6172 149.498L87.9252 147.584C88.0374 147.516 88.0471 147.418 87.9495 147.36ZM104.221 120.065C104.324 120.124 104.499 120.119 104.611 120.051L107.3 118.498C107.412 118.435 107.427 118.332 107.324 118.274L104.753 116.789C104.65 116.731 104.475 116.735 104.363 116.804L101.674 118.357C101.562 118.425 101.547 118.523 101.65 118.581L104.221 120.065ZM96.361 124.606C96.4635 124.665 96.6391 124.66 96.7513 124.592L99.4397 123.039C99.5519 122.976 99.5665 122.873 99.4641 122.814L96.8928 121.33C96.7904 121.272 96.6147 121.276 96.5025 121.345L93.8141 122.897C93.7019 122.966 93.6873 123.063 93.7898 123.122L96.361 124.606ZM78.9331 134.674C79.0356 134.733 79.2112 134.728 79.3234 134.66L82.0118 133.107C82.124 133.039 82.1386 132.941 82.0362 132.883L79.4649 131.398C79.3625 131.34 79.1868 131.345 79.0746 131.413L76.3862 132.966C76.274 133.029 76.2594 133.132 76.3619 133.19L78.9331 134.674ZM100.293 122.331C100.396 122.39 100.572 122.385 100.684 122.316L103.372 120.764C103.484 120.7 103.499 120.598 103.397 120.539L100.825 119.055C100.723 118.996 100.547 119.001 100.435 119.069L97.7466 120.622C97.6344 120.69 97.6198 120.788 97.7222 120.847L100.293 122.331ZM92.4334 126.872C92.5358 126.931 92.7115 126.926 92.8237 126.857L95.512 125.305C95.6243 125.236 95.6389 125.139 95.5364 125.08L92.9652 123.596C92.8627 123.537 92.6871 123.542 92.5749 123.61L89.8865 125.163C89.7743 125.231 89.7597 125.329 89.8621 125.388L92.4334 126.872ZM89.8816 147.516C89.7792 147.457 89.6035 147.462 89.4913 147.531L85.3539 149.923C85.2417 149.987 85.2271 150.089 85.3295 150.148L87.9008 151.632C88.0032 151.691 88.1789 151.686 88.2911 151.617L92.4285 149.23C92.5407 149.161 92.5554 149.064 92.4529 149.005L89.8816 147.521V147.516ZM86.7932 130.134C86.8957 130.192 87.0713 130.187 87.1835 130.119L89.8719 128.566C89.9841 128.498 89.9987 128.4 89.8963 128.342L87.325 126.857C87.2226 126.799 87.0469 126.804 86.9347 126.872L84.2464 128.425C84.1341 128.493 84.1195 128.591 84.222 128.649L86.7932 130.134ZM82.8656 132.404C82.9681 132.463 83.1437 132.458 83.2559 132.389L85.9443 130.837C86.0565 130.768 86.0711 130.671 85.9687 130.612L83.3974 129.128C83.295 129.069 83.1193 129.074 83.0071 129.142L80.3187 130.695C80.2065 130.763 80.1919 130.861 80.2944 130.92L82.8656 132.404ZM162.691 105.452C162.589 105.393 162.413 105.398 162.301 105.466L155.68 109.289C155.568 109.358 155.553 109.455 155.656 109.514L158.227 110.998C158.33 111.057 158.505 111.052 158.617 110.984L165.238 107.161C165.351 107.097 165.365 106.995 165.263 106.936L162.691 105.452ZM154.007 110.471C153.904 110.412 153.729 110.417 153.616 110.486L150.928 112.038C150.816 112.107 150.801 112.204 150.904 112.263L153.475 113.747C153.577 113.806 153.753 113.801 153.865 113.733L156.554 112.18C156.666 112.116 156.68 112.014 156.578 111.955L154.007 110.471ZM100.967 140.055L103.655 138.503C103.767 138.434 103.782 138.337 103.68 138.278L101.108 136.794C101.006 136.735 100.83 136.74 100.718 136.808L98.0296 138.361C97.9174 138.429 97.9028 138.527 98.0052 138.586L100.576 140.07C100.679 140.128 100.855 140.124 100.967 140.055ZM146.147 115.012C146.044 114.953 145.869 114.958 145.756 115.027L143.068 116.579C142.956 116.648 142.941 116.745 143.044 116.804L145.615 118.288C145.717 118.347 145.893 118.342 146.005 118.274L148.693 116.721C148.806 116.652 148.82 116.555 148.718 116.496L146.147 115.012ZM166.624 103.181C166.521 103.123 166.346 103.127 166.234 103.196L163.545 104.748C163.433 104.817 163.418 104.914 163.521 104.973L166.092 106.457C166.195 106.516 166.37 106.511 166.482 106.443L169.171 104.89C169.283 104.822 169.298 104.724 169.195 104.665L166.624 103.181ZM173.128 102.395L166.883 98.7867C166.78 98.7281 166.604 98.733 166.492 98.8014L163.804 100.354C163.692 100.422 163.677 100.52 163.779 100.579L170.025 104.187C170.127 104.246 170.303 104.241 170.415 104.172L173.103 102.62C173.216 102.556 173.23 102.454 173.128 102.395ZM131.461 123.493C131.358 123.435 131.183 123.439 131.07 123.508L127.762 125.422C127.65 125.485 127.636 125.588 127.738 125.646L130.309 127.131C130.412 127.189 130.587 127.184 130.7 127.116L134.008 125.202C134.12 125.134 134.134 125.036 134.032 124.977L131.461 123.493ZM141.39 117.756C141.287 117.697 141.111 117.702 140.999 117.771L136.862 120.163C136.75 120.227 136.735 120.329 136.837 120.388L139.409 121.872C139.511 121.931 139.687 121.926 139.799 121.857L143.936 119.465C144.049 119.397 144.063 119.299 143.961 119.24L141.39 117.756ZM122.361 128.752C122.259 128.693 122.083 128.698 121.971 128.766L99.8398 141.554C99.7275 141.623 99.7129 141.72 99.8154 141.779L102.387 143.263C102.489 143.322 102.665 143.317 102.777 143.249L124.908 130.461C125.02 130.392 125.035 130.295 124.933 130.236L122.361 128.752ZM98.9908 142.257C98.8883 142.199 98.7127 142.204 98.6005 142.272L95.2925 144.186C95.1803 144.254 95.1656 144.352 95.2681 144.411L97.8393 145.895C97.9418 145.954 98.1175 145.949 98.2297 145.88L101.538 143.966C101.65 143.898 101.66 143.8 101.562 143.742L98.9908 142.257ZM126.913 126.125C126.811 126.066 126.635 126.071 126.523 126.14L123.215 128.054C123.103 128.122 123.088 128.22 123.191 128.278L125.762 129.763C125.865 129.821 126.04 129.816 126.152 129.748L129.46 127.834C129.573 127.77 129.587 127.668 129.485 127.609L126.913 126.125ZM94.4387 144.889C94.3362 144.83 94.1606 144.835 94.0483 144.904L90.7404 146.818C90.6281 146.886 90.6135 146.984 90.716 147.042L93.2872 148.527C93.3897 148.585 93.5653 148.58 93.6775 148.512L96.9855 146.598C97.0977 146.53 97.1124 146.432 97.0099 146.373L94.4387 144.889ZM136.013 120.866C135.91 120.808 135.735 120.813 135.623 120.881L132.315 122.795C132.202 122.858 132.188 122.961 132.29 123.02L134.861 124.504C134.964 124.562 135.14 124.558 135.252 124.489L138.56 122.575C138.672 122.507 138.687 122.409 138.584 122.351L136.013 120.866ZM150.079 112.741C149.977 112.683 149.801 112.688 149.689 112.756L147 114.309C146.888 114.377 146.874 114.475 146.976 114.533L149.547 116.018C149.65 116.076 149.825 116.071 149.938 116.003L152.626 114.45C152.738 114.382 152.753 114.284 152.65 114.226L150.079 112.741ZM158.881 106.594L161.569 105.041C161.681 104.973 161.696 104.875 161.594 104.817L159.022 103.332C158.92 103.274 158.744 103.279 158.632 103.347L155.944 104.9C155.832 104.968 155.817 105.066 155.919 105.124L158.491 106.609C158.593 106.667 158.769 106.662 158.881 106.594ZM142.844 107.366L145.532 105.813C145.644 105.749 145.659 105.647 145.556 105.588L142.985 104.104C142.883 104.045 142.707 104.05 142.595 104.119L139.906 105.671C139.794 105.74 139.78 105.837 139.882 105.896L142.453 107.38C142.556 107.439 142.731 107.434 142.844 107.366ZM132.407 121.892L140.267 117.351C140.38 117.282 140.389 117.185 140.292 117.126L137.721 115.642C137.618 115.583 137.442 115.588 137.33 115.656L129.47 120.197C129.358 120.261 129.343 120.363 129.446 120.422L132.017 121.906C132.119 121.965 132.295 121.96 132.407 121.892ZM154.563 108.879C154.665 108.938 154.841 108.933 154.953 108.865L157.642 107.312C157.754 107.244 157.768 107.146 157.666 107.087L155.095 105.603C154.992 105.544 154.817 105.549 154.704 105.618L152.016 107.17C151.904 107.234 151.894 107.336 151.992 107.395L154.563 108.879ZM151.279 106.741L153.968 105.188C154.08 105.124 154.095 105.022 153.992 104.963L151.421 103.479C151.318 103.42 151.143 103.425 151.031 103.494L148.342 105.046C148.23 105.115 148.215 105.212 148.318 105.271L150.889 106.755C150.992 106.814 151.167 106.809 151.279 106.741ZM128.48 124.162L131.168 122.609C131.28 122.541 131.295 122.443 131.192 122.385L128.621 120.9C128.519 120.842 128.343 120.847 128.231 120.915L125.542 122.468C125.43 122.531 125.416 122.634 125.518 122.692L128.089 124.177C128.192 124.235 128.367 124.23 128.48 124.162ZM145.878 113.899C145.981 113.957 146.156 113.952 146.269 113.884L148.957 112.331C149.069 112.263 149.084 112.165 148.981 112.107L146.41 110.622C146.308 110.564 146.132 110.569 146.02 110.637L143.331 112.19C143.219 112.258 143.205 112.356 143.307 112.414L145.878 113.899ZM108.832 135.514L111.52 133.962C111.632 133.898 111.642 133.796 111.545 133.737L108.973 132.253C108.871 132.194 108.695 132.199 108.583 132.267L105.895 133.82C105.782 133.883 105.768 133.986 105.87 134.045L108.441 135.529C108.544 135.588 108.72 135.583 108.832 135.514ZM112.759 133.244L115.448 131.691C115.56 131.623 115.575 131.525 115.472 131.467L112.901 129.982C112.798 129.924 112.623 129.929 112.511 129.997L109.822 131.55C109.71 131.613 109.695 131.716 109.798 131.774L112.369 133.259C112.472 133.317 112.647 133.312 112.759 133.244ZM104.899 137.785L107.588 136.232C107.7 136.164 107.715 136.066 107.612 136.007L105.041 134.523C104.938 134.465 104.763 134.469 104.65 134.538L101.962 136.09C101.85 136.159 101.835 136.256 101.938 136.315L104.509 137.799C104.611 137.858 104.787 137.853 104.899 137.785ZM120.62 128.703L123.308 127.15C123.42 127.082 123.435 126.984 123.332 126.926L120.761 125.441C120.659 125.383 120.483 125.388 120.371 125.456L117.682 127.009C117.57 127.072 117.556 127.175 117.658 127.233L120.229 128.718C120.332 128.776 120.507 128.771 120.62 128.703ZM116.692 130.973L119.38 129.421C119.492 129.357 119.507 129.255 119.405 129.196L116.833 127.712C116.731 127.653 116.555 127.658 116.443 127.726L113.755 129.279C113.643 129.347 113.628 129.445 113.73 129.504L116.302 130.988C116.404 131.047 116.58 131.042 116.692 130.973ZM124.552 126.433L127.24 124.88C127.353 124.811 127.367 124.714 127.265 124.655L124.694 123.171C124.591 123.112 124.415 123.117 124.303 123.186L121.615 124.738C121.503 124.802 121.488 124.904 121.59 124.963L124.162 126.447C124.264 126.506 124.44 126.501 124.552 126.433ZM145.995 94.8464C146.098 94.905 146.273 94.9001 146.386 94.8317L149.074 93.279C149.186 93.2107 149.201 93.113 149.098 93.0544L148.415 92.6589C148.313 92.6003 148.137 92.6052 148.025 92.6736L145.337 94.2263C145.225 94.2897 145.215 94.3923 145.312 94.4509L145.995 94.8464ZM126.465 107.224C126.567 107.283 126.743 107.278 126.855 107.209L129.543 105.657C129.656 105.588 129.67 105.491 129.568 105.432L126.996 103.948C126.894 103.889 126.718 103.894 126.606 103.962L123.918 105.515C123.806 105.583 123.791 105.681 123.893 105.74L126.465 107.224ZM134.325 102.683C134.427 102.742 134.603 102.737 134.715 102.668L137.403 101.116C137.516 101.047 137.53 100.95 137.428 100.891L134.857 99.4068C134.754 99.3482 134.578 99.3531 134.466 99.4214L131.778 100.974C131.666 101.038 131.651 101.14 131.754 101.199L134.325 102.683ZM121.669 109.997C121.771 110.056 121.947 110.051 122.059 109.983L124.747 108.43C124.859 108.367 124.874 108.264 124.772 108.205L122.2 106.721C122.098 106.662 121.922 106.667 121.81 106.736L119.122 108.288C119.009 108.357 118.995 108.454 119.097 108.513L121.669 109.997ZM130.397 104.954C130.5 105.012 130.675 105.007 130.787 104.939L133.476 103.386C133.588 103.318 133.603 103.22 133.5 103.162L130.929 101.677C130.826 101.619 130.651 101.624 130.539 101.692L127.85 103.245C127.738 103.313 127.723 103.411 127.826 103.469L130.397 104.954ZM113.808 114.538C113.911 114.597 114.087 114.592 114.199 114.524L116.887 112.971C116.999 112.903 117.014 112.805 116.911 112.746L114.34 111.262C114.238 111.203 114.062 111.208 113.95 111.277L111.262 112.829C111.149 112.898 111.135 112.995 111.237 113.054L113.808 114.538ZM117.736 112.268C117.838 112.326 118.014 112.322 118.126 112.253L120.815 110.7C120.927 110.632 120.937 110.534 120.839 110.476L118.268 108.992C118.165 108.933 117.99 108.938 117.878 109.006L115.189 110.559C115.077 110.627 115.062 110.725 115.165 110.783L117.736 112.268ZM138.14 99.3873C138.243 99.4459 138.418 99.441 138.53 99.3726L141.219 97.8199C141.331 97.7564 141.341 97.6539 141.243 97.5953L140.56 97.1998C140.458 97.1412 140.282 97.1461 140.17 97.2145L137.481 98.7672C137.369 98.8355 137.355 98.9332 137.457 98.9918L138.14 99.3873ZM149.928 92.5759C150.03 92.6345 150.206 92.6296 150.318 92.5613L153.007 91.0086C153.119 90.9402 153.133 90.8426 153.031 90.784L152.348 90.3885C152.245 90.3299 152.07 90.3348 151.958 90.4031L149.269 91.9558C149.157 92.0242 149.142 92.1218 149.245 92.1804L149.928 92.5759ZM155.334 95.696C155.436 95.7545 155.612 95.7497 155.724 95.6813L158.413 94.1286C158.525 94.0603 158.539 93.9626 158.437 93.904L155.866 92.4197C155.763 92.3611 155.588 92.366 155.475 92.4343L152.787 93.987C152.675 94.0554 152.66 94.153 152.763 94.2116L155.334 95.696ZM162.818 104.324L165.507 102.771C165.619 102.707 165.633 102.605 165.531 102.546L162.96 101.062C162.857 101.003 162.682 101.008 162.569 101.077L159.881 102.629C159.769 102.698 159.754 102.795 159.857 102.854L162.428 104.338C162.53 104.397 162.706 104.392 162.818 104.324ZM142.068 97.1168C142.17 97.1754 142.346 97.1705 142.458 97.1022L145.146 95.5495C145.259 95.4811 145.273 95.3835 145.171 95.3249L144.488 94.9294C144.385 94.8708 144.21 94.8757 144.097 94.944L141.409 96.4967C141.297 96.5651 141.282 96.6627 141.385 96.7213L142.068 97.1168ZM109.876 116.809C109.978 116.867 110.154 116.862 110.266 116.794L112.955 115.241C113.067 115.173 113.081 115.075 112.979 115.017L110.408 113.532C110.305 113.474 110.13 113.479 110.017 113.547L107.329 115.1C107.217 115.168 107.202 115.266 107.305 115.324L109.876 116.809Z" fill="#455A64"/>
<path d="M121.498 137.091L122.049 137.414L136.691 145.871L162.735 130.822L163.277 130.514L148.079 121.735L121.498 137.091Z" fill="#37474F"/>
<path d="M122.049 137.414L136.691 145.871L162.735 130.822L148.078 122.365L122.049 137.414Z" fill="#263238"/>
<path d="M39.2614 71.1848L33.2944 67.7376C33.0309 67.5863 32.8357 67.5472 32.7333 67.6058C32.6064 67.6791 32.1136 67.9671 32.0063 68.0257C31.8794 68.099 31.8794 68.3138 32.0404 68.6458L33.4895 71.6536L32.4064 72.6496C31.9087 73.1037 31.9819 73.7482 32.5625 74.0851L38.5296 77.5323L39.2565 77.1124V71.1848H39.2614Z" fill="#03967b"/>
<path opacity="0.5" d="M39.2614 71.1848L33.2944 67.7376C33.0309 67.5863 32.8357 67.5472 32.7333 67.6058C32.6064 67.6791 32.1136 67.9671 32.0063 68.0257C31.8794 68.099 31.8794 68.3138 32.0404 68.6458L33.4895 71.6536L32.4064 72.6496C31.9087 73.1037 31.9819 73.7482 32.5625 74.0851L38.5296 77.5323L39.2565 77.1124V71.1848H39.2614Z" fill="white"/>
<path d="M32.5626 68.1624C31.9771 67.8255 31.743 68.0452 32.0357 68.6507L33.4848 71.6584L32.4016 72.6545C31.904 73.1086 31.9771 73.7531 32.5578 74.09L38.5248 77.5372V71.6096L32.5578 68.1624H32.5626Z" fill="#03967b"/>
<path d="M39.2324 90.1836C38.8469 90.1836 38.5298 89.8711 38.5298 89.4805V69.647C38.5298 69.2612 38.842 68.9438 39.2324 68.9438C39.6227 68.9438 39.9349 69.2563 39.9349 69.647V89.4805C39.9349 89.8662 39.6227 90.1836 39.2324 90.1836Z" fill="#455A64"/>
<path d="M13.5586 142.995V141.755H13.866C14.2222 141.032 14.8906 140.353 15.8713 139.782C18.9548 138 23.951 138 27.0345 139.782C28.0152 140.348 28.6836 141.032 29.0398 141.755H29.3423V142.956C29.3667 144.142 28.6007 145.329 27.0345 146.237C23.951 148.019 18.9548 148.019 15.8713 146.237C14.3246 145.343 13.5537 144.167 13.5586 142.995Z" fill="#263238"/>
<path d="M27.0296 138.532C23.946 136.75 18.9499 136.75 15.8664 138.532C12.7828 140.314 12.7828 143.2 15.8664 144.982C18.9499 146.764 23.946 146.764 27.0296 144.982C30.1131 143.2 30.1131 140.314 27.0296 138.532Z" fill="#455A64"/>
<path d="M23.4827 98.8064V141.213C23.4827 141.515 23.2827 141.813 22.8874 142.043C22.0922 142.502 20.809 142.502 20.0137 142.043C19.6185 141.813 19.4185 141.515 19.4185 141.213V98.8064H23.4827Z" fill="#37474F"/>
<path d="M19.4185 103.938V107.927L23.4827 110.266V106.291L19.4185 103.938Z" fill="#263238"/>
<path d="M34.1531 95.0124L41.6668 99.358C41.6278 99.4166 41.5741 99.4752 41.5204 99.5093L28.3763 107.102C28.2641 107.165 28.1763 107.117 28.1763 106.985V97.5074C28.1763 95.8571 28.5568 94.0212 29.2741 92.1951L34.1531 95.0124Z" fill="#03967b"/>
<path opacity="0.4" d="M34.1531 95.0124L41.6668 99.358C41.6278 99.4166 41.5741 99.4752 41.5204 99.5093L28.3763 107.102C28.2641 107.165 28.1763 107.117 28.1763 106.985V97.5074C28.1763 95.8571 28.5568 94.0212 29.2741 92.1951L34.1531 95.0124Z" fill="black"/>
<path d="M41.7252 88.787V99.3922L29.2788 92.2C29.2934 92.1658 29.3032 92.1316 29.3178 92.0974C30.6547 88.7626 32.9039 85.9306 35.3434 84.5244C36.3436 83.9433 37.2902 83.6504 38.1586 83.6504C40.3591 83.6504 41.7252 85.6181 41.7252 88.787Z" fill="#03967b"/>
<path opacity="0.3" d="M41.7252 88.787V99.3922L29.2788 92.2C29.2934 92.1658 29.3032 92.1316 29.3178 92.0974C30.6547 88.7626 32.9039 85.9306 35.3434 84.5244C36.3436 83.9433 37.2902 83.6504 38.1586 83.6504C40.3591 83.6504 41.7252 85.6181 41.7252 88.787Z" fill="black"/>
<path d="M55.2451 111.233V110.285H55.1573V110.422C55.1036 110.163 55.0207 109.909 54.9084 109.656C54.4108 108.493 53.3667 107.38 51.7663 106.457L42.8719 101.316C42.5011 101.101 41.9009 101.101 41.5301 101.316L27.9274 109.172C27.7859 109.045 27.6249 108.918 27.4932 108.694V109.646C27.4932 109.787 27.5859 109.924 27.7713 110.032L36.6657 115.173C39.0467 116.55 42.1595 117.224 45.1748 117.185C47.7851 117.15 50.3222 116.579 52.2542 115.461C54.2547 114.309 55.2402 112.785 55.2402 111.228L55.2451 111.233Z" fill="#03967b"/>
<path opacity="0.4" d="M55.2451 111.233V110.285H55.1573V110.422C55.1036 110.163 55.0207 109.909 54.9084 109.656C54.4108 108.493 53.3667 107.38 51.7663 106.457L42.8719 101.316C42.5011 101.101 41.9009 101.101 41.5301 101.316L27.9274 109.172C27.7859 109.045 27.6249 108.918 27.4932 108.694V109.646C27.4932 109.787 27.5859 109.924 27.7713 110.032L36.6657 115.173C39.0467 116.55 42.1595 117.224 45.1748 117.185C47.7851 117.15 50.3222 116.579 52.2542 115.461C54.2547 114.309 55.2402 112.785 55.2402 111.228L55.2451 111.233Z" fill="black"/>
<path d="M54.9083 109.651C54.4106 108.489 53.3665 107.375 51.7662 106.453L42.8717 101.311C42.5009 101.096 41.9008 101.096 41.53 101.311L27.9272 109.167L36.6656 114.216C39.0466 115.593 42.1594 116.267 45.1746 116.228C47.7849 116.193 50.322 115.622 52.2541 114.504C54.0496 113.469 55.0303 112.136 55.2108 110.744C55.1669 110.373 55.0644 110.007 54.9034 109.641L54.9083 109.651Z" fill="#03967b"/>
<path opacity="0.2" d="M54.9083 109.651C54.4106 108.489 53.3665 107.375 51.7662 106.453L42.8717 101.311C42.5009 101.096 41.9008 101.096 41.53 101.311L27.9272 109.167L36.6656 114.216C39.0466 115.593 42.1594 116.267 45.1746 116.228C47.7849 116.193 50.322 115.622 52.2541 114.504C54.0496 113.469 55.0303 112.136 55.2108 110.744C55.1669 110.373 55.0644 110.007 54.9034 109.641L54.9083 109.651Z" fill="black"/>
<path d="M55.2158 110.754C55.1719 110.383 55.0695 110.017 54.9084 109.651C54.4108 108.489 53.3667 107.375 51.7663 106.452L42.8719 101.311C42.5011 101.096 41.9009 101.096 41.5301 101.311L27.9274 109.167L27.7713 109.079C27.4005 108.865 27.4005 108.518 27.7713 108.303L41.5253 100.354C41.8961 100.139 42.4962 100.139 42.867 100.354L51.7615 105.495C53.3618 106.418 54.4059 107.532 54.9036 108.694C55.0695 109.079 55.1768 109.47 55.2158 109.865C55.25 110.163 55.2451 110.456 55.2061 110.749L55.2158 110.754Z" fill="#03967b"/>
<path opacity="0.3" d="M55.2158 110.754C55.1719 110.383 55.0695 110.017 54.9084 109.651C54.4108 108.489 53.3667 107.375 51.7663 106.452L42.8719 101.311C42.5011 101.096 41.9009 101.096 41.5301 101.311L27.9274 109.167L27.7713 109.079C27.4005 108.865 27.4005 108.518 27.7713 108.303L41.5253 100.354C41.8961 100.139 42.4962 100.139 42.867 100.354L51.7615 105.495C53.3618 106.418 54.4059 107.532 54.9036 108.694C55.0695 109.079 55.1768 109.47 55.2158 109.865C55.25 110.163 55.2451 110.456 55.2061 110.749L55.2158 110.754Z" fill="black"/>
<path d="M28.0737 108.176L41.8277 100.227L41.5252 99.5093L28.3811 107.102L28.0737 108.176Z" fill="#03967b"/>
<path opacity="0.1" d="M28.0737 108.176L41.8277 100.227L41.5252 99.5093L28.3811 107.102L28.0737 108.176Z" fill="black"/>
<path d="M40.515 88.1572C40.515 87.9473 40.3686 87.6934 40.1881 87.5908L23.4433 77.9133C23.2628 77.8108 22.97 77.8108 22.7895 77.9133L22.4187 78.1282C22.2382 78.2307 22.0918 78.4846 22.0918 78.6946V91.5409C22.0918 91.7509 22.2382 92.0048 22.4187 92.1073L39.1635 101.785C39.344 101.887 39.6368 101.887 39.8173 101.785L40.1881 101.57C40.3686 101.467 40.515 101.209 40.515 101.004V88.1572Z" fill="#F5F5F5"/>
<path d="M40.4175 87.8301L39.4905 88.3672L22.1846 78.3674C22.2431 78.2649 22.3261 78.177 22.4139 78.1233L22.7847 77.9133C22.9652 77.8059 23.258 77.8059 23.4385 77.9133L40.1833 87.5908C40.276 87.6445 40.359 87.7324 40.4175 87.835V87.8301Z" fill="#E0E0E0"/>
<path d="M39.4126 101.853C39.4126 101.853 39.4514 101.858 39.4756 101.858H39.4562C39.4562 101.858 39.4271 101.858 39.4126 101.853Z" fill="#03967b"/>
<path d="M39.4904 88.3672L39.3197 88.4697C39.4221 88.5088 39.4904 88.6113 39.4904 88.748V101.594C39.4904 101.702 39.4514 101.775 39.388 101.809C39.344 101.829 39.2904 101.834 39.2318 101.814C39.2074 101.804 39.183 101.795 39.1635 101.785L22.4138 92.1073C22.2333 91.9999 22.0869 91.746 22.0869 91.5409V78.6946C22.0869 78.5872 22.1259 78.47 22.1845 78.3674L39.4904 88.3672Z" fill="#EBEBEB"/>
<path opacity="0.2" d="M39.4904 88.3672L31.7328 91.2675C31.1814 91.4726 30.5569 91.2675 30.2349 90.7744L28.9907 88.8652L22.1211 78.3333L28.7419 88.9385L22.0869 91.5458C22.0869 91.6532 22.1259 91.7704 22.1894 91.873L28.7614 88.9678L30.2105 91.287C30.5423 91.8193 31.2156 92.0243 31.7864 91.7704L32.8159 91.3163L39.388 101.809C39.4514 101.775 39.4904 101.702 39.4904 101.594V101.38L32.8501 91.3017L39.4904 88.3672Z" fill="black"/>
<path d="M36.5487 90.4277C36.5487 90.2178 36.4023 89.9639 36.2218 89.8613L19.477 80.1838C19.2965 80.0813 19.0037 80.0813 18.8232 80.1838L18.4524 80.3987C18.2719 80.5012 18.1255 80.7551 18.1255 80.9651V93.8114C18.1255 94.0214 18.2719 94.2753 18.4524 94.3778L35.1972 104.055C35.3777 104.158 35.6705 104.158 35.851 104.055L36.2218 103.84C36.4023 103.738 36.5487 103.479 36.5487 103.274V90.4277Z" fill="#F5F5F5"/>
<path d="M36.4561 90.1055L35.5291 90.6426L18.2231 80.6428C18.2817 80.5403 18.3646 80.4524 18.4525 80.3987L18.8233 80.1887C19.0038 80.0813 19.2965 80.0813 19.4771 80.1887L36.2219 89.8662C36.3146 89.9199 36.3975 90.0078 36.4561 90.1104V90.1055Z" fill="#E0E0E0"/>
<path d="M35.4463 104.129C35.4463 104.129 35.4851 104.134 35.5093 104.134H35.4899C35.4899 104.134 35.4608 104.134 35.4463 104.129Z" fill="#03967b"/>
<path d="M35.5241 90.6426L35.3533 90.7451C35.4558 90.7842 35.5241 90.8867 35.5241 91.0234V103.87C35.5241 103.977 35.4851 104.05 35.4217 104.085C35.3777 104.104 35.3241 104.109 35.2655 104.09C35.2411 104.08 35.2167 104.07 35.1972 104.06L18.4475 94.3827C18.267 94.2753 18.1206 94.0214 18.1206 93.8163V80.97C18.1206 80.8625 18.1596 80.7454 18.2182 80.6428L35.5241 90.6426Z" fill="#EBEBEB"/>
<path opacity="0.2" d="M35.5241 90.6426L27.7665 93.5429C27.2151 93.748 26.5906 93.5429 26.2686 93.0498L25.0244 91.1406L18.1548 80.6086L24.7756 91.2139L18.1206 93.8212C18.1206 93.9286 18.1596 94.0458 18.2231 94.1484L24.7951 91.2431L26.2442 93.5624C26.576 94.0946 27.2493 94.2997 27.8201 94.0458L28.8496 93.5917L35.4217 104.085C35.4851 104.05 35.5241 103.977 35.5241 103.87V103.655L28.8837 93.5771L35.5241 90.6426Z" fill="black"/>
<path d="M32.5868 92.7031C32.5868 92.4932 32.4404 92.2393 32.2599 92.1367L15.5151 82.4592C15.3345 82.3567 15.0418 82.3567 14.8613 82.4592L14.4905 82.6741C14.3099 82.7766 14.1636 83.0305 14.1636 83.2405V96.0868C14.1636 96.2968 14.3099 96.5507 14.4905 96.6532L31.2353 106.331C31.4158 106.433 31.7086 106.433 31.8891 106.331L32.2599 106.116C32.4404 106.013 32.5868 105.755 32.5868 105.549V92.7031Z" fill="#F5F5F5"/>
<path d="M32.4893 92.3809L31.5623 92.918L14.2563 82.9182C14.3149 82.8157 14.3978 82.7278 14.4857 82.6741L14.8565 82.4641C15.037 82.3567 15.3297 82.3567 15.5103 82.4641L32.2551 92.1416C32.3478 92.1953 32.4307 92.2832 32.4893 92.3857V92.3809Z" fill="#E0E0E0"/>
<path d="M31.4839 106.399C31.4839 106.399 31.5227 106.404 31.5469 106.404H31.5275C31.5275 106.404 31.4984 106.404 31.4839 106.399Z" fill="#03967b"/>
<path d="M31.5622 92.9131L31.3914 93.0156C31.4939 93.0547 31.5622 93.1572 31.5622 93.2939V106.14C31.5622 106.248 31.5232 106.321 31.4597 106.355C31.4158 106.375 31.3622 106.38 31.3036 106.36C31.2792 106.35 31.2548 106.34 31.2353 106.331L14.4856 96.6532C14.3051 96.5458 14.1587 96.2919 14.1587 96.0868V83.2405C14.1587 83.1331 14.1977 83.0159 14.2563 82.9133L31.5622 92.9131Z" fill="#EBEBEB"/>
<path opacity="0.2" d="M31.5622 92.918L23.8045 95.8183C23.2532 96.0234 22.6287 95.8183 22.3067 95.3251L21.0625 93.416L14.1928 82.884L20.8137 93.4892L14.1587 96.0966C14.1587 96.204 14.1977 96.3212 14.2612 96.4237L20.8332 93.5185L22.2823 95.8378C22.6141 96.37 23.2874 96.5751 23.8582 96.3212L24.8877 95.8671L31.4597 106.36C31.5232 106.326 31.5622 106.253 31.5622 106.145V105.93L24.9218 95.8525L31.5622 92.918Z" fill="black"/>
<path d="M39.9836 83.3085C38.6516 82.6103 36.8854 82.7323 34.9533 83.8505C32.7821 85.1004 30.8256 87.3611 29.4546 89.9587C29.1326 90.5593 28.8496 91.1794 28.5959 91.8044C27.8396 93.6891 27.4005 95.6617 27.4005 97.5074V108.337C27.1566 108.337 26.9175 108.279 26.7321 108.176L7.46481 97.0386C7.09889 96.8238 6.79639 96.3013 6.79639 95.8765V85.5936C6.79639 80.457 10.1776 74.3439 14.3442 71.9318C16.3203 70.7893 18.1157 70.6965 19.4624 71.4533V71.4436L39.9836 83.3085Z" fill="#03967b"/>
<path opacity="0.2" d="M39.9836 83.3085C38.6516 82.6103 36.8854 82.7323 34.9533 83.8505C32.7821 85.1004 30.8256 87.3611 29.4546 89.9587C29.1326 90.5593 28.8496 91.1794 28.5959 91.8044C27.8396 93.6891 27.4005 95.6617 27.4005 97.5074V108.337C27.1566 108.337 26.9175 108.279 26.7321 108.176L7.46481 97.0386C7.09889 96.8238 6.79639 96.3013 6.79639 95.8765V85.5936C6.79639 80.457 10.1776 74.3439 14.3442 71.9318C16.3203 70.7893 18.1157 70.6965 19.4624 71.4533V71.4436L39.9836 83.3085Z" fill="black"/>
<path opacity="0.1" d="M7.46481 97.0387L26.7321 108.176C26.9175 108.279 27.1566 108.337 27.4005 108.337V97.5074C27.4005 96.5211 27.5274 95.5007 27.7616 94.4753L7.15256 82.5664C6.92324 83.5918 6.79639 84.6123 6.79639 85.5937V95.8766C6.79639 96.3014 7.09889 96.8239 7.46481 97.0387Z" fill="black"/>
<path d="M28.596 91.8045C27.8398 93.6892 27.4007 95.6618 27.4007 97.5075V108.337C27.3177 108.337 27.2348 108.328 27.1567 108.313C27.1567 107.688 27.147 104.211 27.147 97.5075C27.147 89.5389 33.2702 84.4756 34.9534 83.8506C32.7823 85.1006 30.8258 87.3612 29.4548 89.9588C29.1327 90.5594 28.8498 91.1795 28.596 91.8045Z" fill="#03967b"/>
<path opacity="0.4" d="M28.596 91.8045C27.8398 93.6892 27.4007 95.6618 27.4007 97.5075V108.337C27.3177 108.337 27.2348 108.328 27.1567 108.313C27.1567 107.688 27.147 104.211 27.147 97.5075C27.147 89.5389 33.2702 84.4756 34.9534 83.8506C32.7823 85.1006 30.8258 87.3612 29.4548 89.9588C29.1327 90.5594 28.8498 91.1795 28.596 91.8045Z" fill="black"/>
<path d="M28.3811 107.102C28.2689 107.165 28.181 107.112 28.181 106.985V97.5074C28.181 95.857 28.5616 94.0212 29.2788 92.195C29.2935 92.1609 29.3032 92.1267 29.3179 92.0925C29.5862 91.4187 29.8936 90.7644 30.2351 90.1394C31.572 87.6688 33.3967 85.6425 35.3435 84.5194C36.3437 83.9384 37.2902 83.6454 38.1587 83.6454C38.7051 83.6454 39.2028 83.7675 39.6419 84.0019C40.9592 84.705 41.7301 86.4042 41.7301 88.782V99.1529C41.7301 99.2798 41.6423 99.4361 41.5301 99.4995L41.8326 100.217C41.8326 100.217 41.8814 100.188 41.9009 100.173C42.0033 100.105 42.096 100.012 42.179 99.9048C42.3741 99.6607 42.501 99.3384 42.501 99.0552V88.7772C42.501 86.0282 41.5301 84.1142 39.9883 83.3036C38.6514 82.6054 36.8901 82.7275 34.958 83.8456C32.7868 85.0956 30.8304 87.3563 29.4593 89.9539C29.1422 90.5544 28.8543 91.1697 28.6055 91.7995C27.8493 93.6843 27.4102 95.6569 27.4102 97.5025V108.327C27.4492 108.327 27.4882 108.327 27.5273 108.327C27.7322 108.313 27.9273 108.259 28.0835 108.171L28.386 107.102H28.3811Z" fill="#03967b"/>
<path opacity="0.1" d="M28.3811 107.102C28.2689 107.165 28.181 107.112 28.181 106.985V97.5074C28.181 95.857 28.5616 94.0212 29.2788 92.195C29.2935 92.1609 29.3032 92.1267 29.3179 92.0925C29.5862 91.4187 29.8936 90.7644 30.2351 90.1394C31.572 87.6688 33.3967 85.6425 35.3435 84.5194C36.3437 83.9384 37.2902 83.6454 38.1587 83.6454C38.7051 83.6454 39.2028 83.7675 39.6419 84.0019C40.9592 84.705 41.7301 86.4042 41.7301 88.782V99.1529C41.7301 99.2798 41.6423 99.4361 41.5301 99.4995L41.8326 100.217C41.8326 100.217 41.8814 100.188 41.9009 100.173C42.0033 100.105 42.096 100.012 42.179 99.9048C42.3741 99.6607 42.501 99.3384 42.501 99.0552V88.7772C42.501 86.0282 41.5301 84.1142 39.9883 83.3036C38.6514 82.6054 36.8901 82.7275 34.958 83.8456C32.7868 85.0956 30.8304 87.3563 29.4593 89.9539C29.1422 90.5544 28.8543 91.1697 28.6055 91.7995C27.8493 93.6843 27.4102 95.6569 27.4102 97.5025V108.327C27.4492 108.327 27.4882 108.327 27.5273 108.327C27.7322 108.313 27.9273 108.259 28.0835 108.171L28.386 107.102H28.3811Z" fill="black"/>
<path d="M74.3271 79.3243C74.3271 78.5137 74.8931 77.5323 75.5957 77.127L138.13 40.9951C138.828 40.5898 139.965 40.5898 140.667 40.9951L142.097 41.8203C142.795 42.2255 143.365 43.207 143.365 44.0175V93.7624C143.365 94.568 142.795 95.5543 142.097 95.9596L79.5624 132.092C78.8647 132.497 77.723 132.497 77.0253 132.092L75.5957 131.266C74.898 130.861 74.3271 129.875 74.3271 129.069V79.3243Z" fill="#03967b"/>
<g opacity="0.7">
<path d="M74.3271 79.3243C74.3271 78.5137 74.8931 77.5323 75.5957 77.127L138.13 40.9951C138.828 40.5898 139.965 40.5898 140.667 40.9951L142.097 41.8203C142.795 42.2255 143.365 43.207 143.365 44.0175V93.7624C143.365 94.568 142.795 95.5543 142.097 95.9596L79.5624 132.092C78.8647 132.497 77.723 132.497 77.0253 132.092L75.5957 131.266C74.898 130.861 74.3271 129.875 74.3271 129.069V79.3243Z" fill="white"/>
</g>
<path d="M74.6978 78.0792L78.2936 80.1543L142.99 42.7724C142.76 42.3769 142.443 42.0302 142.097 41.8252L140.662 41.0049C139.965 40.5947 138.828 40.5947 138.13 41.0049L75.5955 77.1319C75.2393 77.337 74.9222 77.6837 74.6978 78.0792Z" fill="#03967b"/>
<path opacity="0.8" d="M74.6978 78.0792L78.2936 80.1543L142.99 42.7724C142.76 42.3769 142.443 42.0302 142.097 41.8252L140.662 41.0049C139.965 40.5947 138.828 40.5947 138.13 41.0049L75.5955 77.1319C75.2393 77.337 74.9222 77.6837 74.6978 78.0792Z" fill="white"/>
<path opacity="0.1" d="M74.3271 79.3242V129.069C74.3271 129.88 74.898 130.861 75.6006 131.266L77.0301 132.096C77.1375 132.155 77.2497 132.209 77.3765 132.253C77.5376 132.306 77.7132 132.35 77.8986 132.375C78.2304 132.419 78.5768 132.404 78.8988 132.34C78.9817 132.321 79.0696 132.301 79.1476 132.277C79.2013 132.257 79.2598 132.243 79.3038 132.223C79.0696 132.306 78.8598 132.287 78.689 132.199C78.4499 132.072 78.2987 131.784 78.2987 131.364V81.6191C78.2987 81.0966 78.5622 80.7011 78.9574 80.54L78.2987 80.1542L74.7028 78.0791C74.4735 78.4746 74.332 78.9238 74.332 79.3291L74.3271 79.3242Z" fill="#03967b"/>
<path opacity="0.05" d="M74.3271 79.3242V129.069C74.3271 129.88 74.898 130.861 75.6006 131.266L77.0301 132.096C77.1375 132.155 77.2497 132.209 77.3765 132.253C77.5376 132.306 77.7132 132.35 77.8986 132.375C78.2304 132.419 78.5768 132.404 78.8988 132.34C78.9817 132.321 79.0696 132.301 79.1476 132.277C79.2013 132.257 79.2598 132.243 79.3038 132.223C79.0696 132.306 78.8598 132.287 78.689 132.199C78.4499 132.072 78.2987 131.784 78.2987 131.364V81.6191C78.2987 81.0966 78.5622 80.7011 78.9574 80.54L78.2987 80.1542L74.7028 78.0791C74.4735 78.4746 74.332 78.9238 74.332 79.3291L74.3271 79.3242Z" fill="black"/>
<path opacity="0.2" d="M78.2939 80.1544L108.324 91.3846C110.466 92.1804 112.872 91.3894 114.116 89.4754L118.936 82.083L142.985 42.7773L119.897 82.3613L143.356 93.7917C143.351 94.2019 143.2 94.656 142.961 95.0563L119.824 82.4736L114.218 91.448C112.93 93.5085 110.325 94.3093 108.11 93.3279L104.119 91.5652L78.6794 132.199C78.4403 132.072 78.2891 131.784 78.2891 131.364V130.534L103.997 91.5115L78.2891 80.1544H78.2939Z" fill="#03967b"/>
<path opacity="0.05" d="M78.2939 80.1544L108.324 91.3846C110.466 92.1804 112.872 91.3894 114.116 89.4754L118.936 82.083L142.985 42.7773L119.897 82.3613L143.356 93.7917C143.351 94.2019 143.2 94.656 142.961 95.0563L119.824 82.4736L114.218 91.448C112.93 93.5085 110.325 94.3093 108.11 93.3279L104.119 91.5652L78.6794 132.199C78.4403 132.072 78.2891 131.784 78.2891 131.364V130.534L103.997 91.5115L78.2891 80.1544H78.2939Z" fill="black"/>
<path d="M90.1841 88.4939C90.1841 87.6834 90.7501 86.702 91.4526 86.2967L153.987 50.1648C154.685 49.7595 155.822 49.7595 156.524 50.1648L157.954 50.99C158.652 51.3952 159.222 52.3766 159.222 53.1872V102.932C159.222 103.738 158.652 104.724 157.954 105.129L95.4193 141.261C94.7216 141.662 93.5799 141.662 92.8822 141.261L91.4526 140.436C90.7549 140.036 90.1841 139.044 90.1841 138.239V88.4939Z" fill="#03967b"/>
<g opacity="0.5">
<path d="M90.1841 88.4939C90.1841 87.6834 90.7501 86.702 91.4526 86.2967L153.987 50.1648C154.685 49.7595 155.822 49.7595 156.524 50.1648L157.954 50.99C158.652 51.3952 159.222 52.3766 159.222 53.1872V102.932C159.222 103.738 158.652 104.724 157.954 105.129L95.4193 141.261C94.7216 141.662 93.5799 141.662 92.8822 141.261L91.4526 140.436C90.7549 140.036 90.1841 139.044 90.1841 138.239V88.4939Z" fill="white"/>
</g>
<path d="M90.5547 87.2488L94.1505 89.324L158.846 51.9421C158.617 51.5466 158.3 51.1999 157.954 50.9948L156.519 50.1746C155.821 49.7644 154.685 49.7644 153.987 50.1746L91.4524 86.3016C91.0963 86.5067 90.7791 86.8533 90.5547 87.2488Z" fill="#03967b"/>
<path opacity="0.6" d="M90.5547 87.2488L94.1505 89.324L158.846 51.9421C158.617 51.5466 158.3 51.1999 157.954 50.9948L156.519 50.1746C155.821 49.7644 154.685 49.7644 153.987 50.1746L91.4524 86.3016C91.0963 86.5067 90.7791 86.8533 90.5547 87.2488Z" fill="white"/>
<path opacity="0.1" d="M90.1792 88.4939V138.239C90.1792 139.049 90.75 140.031 91.4526 140.436L92.8822 141.266C92.9895 141.325 93.1017 141.378 93.2286 141.422C93.3896 141.476 93.5652 141.52 93.7506 141.544C94.0824 141.588 94.4288 141.574 94.7508 141.51C94.8338 141.491 94.9167 141.466 94.9948 141.442C95.0485 141.422 95.0973 141.408 95.146 141.383C94.9119 141.466 94.7069 141.456 94.5411 141.373C94.302 141.246 94.1507 140.958 94.1507 140.538V90.7936C94.1507 90.2712 94.4142 89.8757 94.8094 89.7145L94.1507 89.3288L90.5549 87.2537C90.3256 87.6492 90.1841 88.0984 90.1841 88.5036L90.1792 88.4939Z" fill="black"/>
<path opacity="0.4" d="M94.1509 89.324L124.181 100.554C126.323 101.35 128.729 100.559 129.973 98.6451L134.793 91.2527L158.842 51.947L135.754 91.531L159.213 102.961C159.208 103.372 159.057 103.826 158.818 104.226L135.681 91.6433L130.075 100.618C128.787 102.678 126.182 103.479 123.967 102.498L119.976 100.735L94.5363 141.369C94.2972 141.242 94.146 140.954 94.146 140.534V139.704L119.854 100.681L94.146 89.324H94.1509Z" fill="#03967b"/>
<path opacity="0.05" d="M94.1509 89.324L124.181 100.554C126.323 101.35 128.729 100.559 129.973 98.6451L134.793 91.2527L158.842 51.947L135.754 91.531L159.213 102.961C159.208 103.372 159.057 103.826 158.818 104.226L135.681 91.6433L130.075 100.618C128.787 102.678 126.182 103.479 123.967 102.498L119.976 100.735L94.5363 141.369C94.2972 141.242 94.146 140.954 94.146 140.534V139.704L119.854 100.681L94.146 89.324H94.1509Z" fill="black"/>
<path d="M106.168 98.064L171.244 60.4624L173.85 61.9663C174.523 62.3569 175.075 63.309 175.075 64.0902V112.131C175.075 112.907 174.523 113.864 173.85 114.255L111.223 150.441C110.549 150.831 109.447 150.831 108.773 150.441L107.393 149.645C106.719 149.254 106.168 148.302 106.168 147.521V98.064Z" fill="#03967b"/>
<path opacity="0.2" d="M106.168 98.064L171.244 60.4624L173.85 61.9663C174.523 62.3569 175.075 63.309 175.075 64.0902V112.131C175.075 112.907 174.523 113.864 173.85 114.255L111.223 150.441C110.549 150.831 109.447 150.831 108.773 150.441L107.393 149.645C106.719 149.254 106.168 148.302 106.168 147.521V98.064Z" fill="black"/>
<path d="M170.888 56.2439L171.156 56.0974L170.146 55.5115C170.058 55.4626 169.971 55.4187 169.878 55.3845L141.238 44.7646C140.482 44.4815 139.496 44.7988 139.038 45.4629L107.002 92.283C106.543 92.9519 106.177 94.1482 106.177 94.9538C106.177 96.2917 106.177 98.0641 106.177 98.0641L107.173 98.6403L171.259 60.4625V57.3522C171.259 56.9714 171.122 56.5808 170.898 56.239L170.888 56.2439Z" fill="#03967b"/>
<path opacity="0.1" d="M140.36 45.6872C140.233 45.7849 140.121 45.907 140.028 46.0388L107.988 92.8589C107.753 93.2056 107.539 93.6939 107.392 94.1968L106.397 93.6207C106.47 93.3765 106.558 93.1373 106.656 92.9127C106.66 92.9029 106.66 92.898 106.665 92.8931C106.709 92.7955 106.753 92.7027 106.802 92.6099C106.812 92.5953 106.817 92.5806 106.826 92.566C106.88 92.4635 106.939 92.3658 106.997 92.2828L139.033 45.4626C139.082 45.3894 139.135 45.3308 139.194 45.2673C139.247 45.2136 139.306 45.1599 139.365 45.1111L140.36 45.6872Z" fill="black"/>
<path opacity="0.35" d="M171.142 56.0923C171.054 56.0386 170.961 55.9946 170.869 55.9605L142.224 45.3357C141.619 45.1111 140.867 45.2674 140.36 45.6873L139.365 45.1111C139.877 44.6961 140.624 44.535 141.233 44.7596L169.873 55.3794C169.966 55.4136 170.054 55.4576 170.142 55.5113L171.142 56.0923Z" fill="white"/>
<path d="M139.194 45.2683C139.248 45.2142 139.307 45.1602 139.366 45.1111C139.307 45.1602 139.248 45.2093 139.194 45.2683Z" fill="#03967b"/>
<path d="M106.397 93.6208C106.47 93.3767 106.558 93.1326 106.656 92.9128C106.558 93.1374 106.47 93.3767 106.397 93.6208Z" fill="#03967b"/>
<path opacity="0.2" d="M106.656 92.9124C106.656 92.9124 106.661 92.8981 106.665 92.8933C106.665 92.8981 106.661 92.9076 106.656 92.9124Z" fill="black"/>
<path opacity="0.2" d="M106.802 92.61C106.802 92.61 106.816 92.5759 106.826 92.5613C106.816 92.5759 106.811 92.5905 106.802 92.61Z" fill="black"/>
<path opacity="0.2" d="M139.033 45.4592C139.082 45.3904 139.136 45.3266 139.195 45.2627C139.136 45.3216 139.082 45.3855 139.033 45.4592Z" fill="black"/>
<path d="M140.028 46.039L107.993 92.8592C107.534 93.5281 107.168 94.7244 107.168 95.53C107.168 96.8679 107.168 98.6403 107.168 98.6403L172.244 61.0387V57.9333C172.244 57.1228 171.63 56.239 170.873 55.9607L142.234 45.3408C141.477 45.0576 140.492 45.375 140.033 46.039H140.028Z" fill="#03967b"/>
<path opacity="0.05" d="M172.24 57.9331C172.24 57.562 172.108 57.1763 171.893 56.8394L107.392 94.1968C107.392 94.1968 107.392 94.2017 107.388 94.2066C107.251 94.6705 107.163 95.1441 107.163 95.5298V98.6401L172.24 61.0385V57.9331Z" fill="black"/>
<path d="M169.458 44.7352C169.458 44.3983 169.341 44.1639 169.151 44.0516C168.961 43.9393 167.356 43.0165 167.165 42.9042C166.975 42.7919 166.712 42.8114 166.419 42.9774L113.042 73.8165C112.457 74.1534 111.983 74.9737 111.988 75.6475V139.621C111.988 139.957 112.105 140.192 112.296 140.304C112.486 140.416 114.086 141.339 114.277 141.452C114.467 141.564 114.73 141.544 115.023 141.378L168.4 110.539C168.985 110.202 169.458 109.382 169.458 108.708V44.7352Z" fill="#F0F0F0"/>
<path d="M115.028 141.378L168.405 110.539C168.99 110.202 169.463 109.382 169.463 108.708V44.7353C169.463 44.0615 168.99 43.788 168.405 44.125L115.028 74.964C114.443 75.3009 113.969 76.1212 113.969 76.7951V140.768C113.969 141.442 114.443 141.715 115.028 141.378Z" fill="#FAFAFA"/>
<path d="M149.235 80.833C149.176 81.5898 149.045 82.2978 148.835 82.9619C148.625 83.6259 148.366 84.2216 148.064 84.7489C147.761 85.2763 147.425 85.7303 147.059 86.1112C146.688 86.492 146.317 86.7752 145.941 86.9705C145.273 87.3123 144.761 87.4344 144.405 87.3416C144.048 87.2489 143.78 87.0829 143.609 86.8436C143.492 87.0926 143.375 87.3465 143.243 87.6053C143.117 87.8641 142.956 88.118 142.76 88.3719C142.565 88.6258 142.326 88.8699 142.043 89.114C141.76 89.3533 141.409 89.5828 140.994 89.7927C140.501 90.0466 140.057 90.1345 139.667 90.0564C139.277 89.9783 138.95 89.7488 138.681 89.368C138.413 88.9871 138.218 88.4695 138.096 87.8153C137.969 87.161 137.925 86.3846 137.964 85.4862C137.998 84.5878 138.106 83.7333 138.281 82.9228C138.457 82.1123 138.691 81.3799 138.979 80.7158C139.267 80.0518 139.613 79.4707 140.023 78.9776C140.428 78.4844 140.882 78.1085 141.375 77.8546C141.921 77.5762 142.326 77.4884 142.585 77.5958C142.843 77.7032 143.053 77.8985 143.209 78.1817L143.219 77.918C143.229 77.7032 143.287 77.4932 143.399 77.2784C143.512 77.0685 143.643 76.922 143.79 76.8487L144.834 76.3165C144.98 76.2433 145.107 76.253 145.205 76.3556C145.302 76.4581 145.351 76.6144 145.341 76.8292L145.093 83.0742C145.073 83.5429 145.161 83.8505 145.361 84.0019C145.556 84.1483 145.79 84.1581 146.059 84.0165C146.327 83.8798 146.561 83.6308 146.766 83.2646C146.971 82.9033 147.098 82.4003 147.151 81.7607C147.2 81.2187 147.234 80.6621 147.259 80.0811C147.283 79.5049 147.283 78.9727 147.264 78.4844C147.225 77.4493 147.098 76.5899 146.878 75.8966C146.659 75.2033 146.332 74.7052 145.907 74.3976C145.483 74.09 144.936 73.9728 144.273 74.0412C143.609 74.1144 142.814 74.383 141.892 74.8566C141.116 75.2521 140.414 75.7697 139.784 76.4093C139.155 77.0489 138.608 77.7667 138.145 78.5674C137.681 79.3731 137.301 80.2422 136.998 81.1797C136.701 82.1172 136.491 83.079 136.374 84.0556C136.335 84.3241 136.305 84.6708 136.281 85.0907C136.257 85.5155 136.237 85.9549 136.218 86.4139C136.198 86.8729 136.183 87.3172 136.174 87.742C136.164 88.1668 136.164 88.5135 136.183 88.7723C136.227 89.6707 136.364 90.4421 136.603 91.0867C136.837 91.7312 137.169 92.2292 137.584 92.5808C138.003 92.9323 138.511 93.113 139.116 93.1179C139.716 93.1276 140.409 92.9323 141.184 92.5319C141.731 92.2536 142.209 91.9704 142.614 91.6872C143.019 91.404 143.375 91.116 143.678 90.823C143.985 90.53 144.248 90.2468 144.468 89.9734C144.688 89.7 144.888 89.4265 145.068 89.1629C145.219 88.9334 145.341 88.7576 145.434 88.6453C145.522 88.533 145.644 88.4402 145.79 88.3621L147.273 87.6004C147.42 87.5272 147.547 87.5321 147.654 87.6199C147.761 87.7078 147.805 87.8836 147.781 88.1424C147.776 88.2986 147.722 88.4695 147.625 88.6551C147.327 89.2117 146.99 89.7927 146.62 90.4031C146.249 91.0134 145.81 91.614 145.302 92.1999C144.795 92.7858 144.195 93.362 143.507 93.9235C142.814 94.485 142.004 95.0075 141.067 95.4909C139.906 96.0865 138.891 96.36 138.028 96.316C137.164 96.2672 136.447 95.9742 135.871 95.4371C135.295 94.9 134.856 94.1579 134.554 93.2106C134.251 92.2634 134.085 91.1941 134.051 90.0076C134.051 89.739 134.051 89.3777 134.066 88.9236C134.076 88.4695 134.095 87.991 134.115 87.493C134.134 86.995 134.159 86.5213 134.183 86.0673C134.207 85.6132 134.232 85.2567 134.256 84.9979C134.373 83.7529 134.622 82.4785 135.008 81.1797C135.393 79.8809 135.91 78.6456 136.559 77.4688C137.208 76.2921 137.989 75.2179 138.896 74.2463C139.804 73.2746 140.843 72.4885 142.004 71.8928C143.37 71.1946 144.517 70.8479 145.444 70.8479C146.376 70.8479 147.127 71.1164 147.703 71.6438C148.279 72.1711 148.693 72.9279 148.947 73.9093C149.201 74.8908 149.342 76.004 149.371 77.254C149.376 77.7471 149.371 78.3331 149.342 79.0069C149.313 79.6807 149.279 80.291 149.23 80.833H149.235ZM140.072 84.4023C140.033 85.3593 140.131 86.038 140.365 86.4335C140.599 86.8338 140.945 86.912 141.414 86.6727C141.907 86.4188 142.292 85.9696 142.56 85.3251C142.829 84.6806 142.98 83.87 143.019 82.8935C143.058 81.9365 142.96 81.2529 142.736 80.8428C142.512 80.4326 142.15 80.3545 141.653 80.6084C141.184 80.8477 140.814 81.3017 140.536 81.9707C140.257 82.6396 140.101 83.4501 140.067 84.4071L140.072 84.4023Z" fill="#03967b"/>
<path d="M113.969 140.768C113.969 141.066 114.062 141.285 114.218 141.412C113.862 141.212 112.476 140.407 112.301 140.309C112.105 140.197 111.988 139.962 111.988 139.625V75.6474C111.988 75.3105 112.105 74.9394 112.301 74.6074L114.281 75.75C114.086 76.082 113.969 76.458 113.969 76.7949V140.768Z" fill="#E0E0E0"/>
<path d="M173.426 112.776C173.406 112.81 173.387 112.839 173.357 112.873L146.24 104.27C144.107 103.323 141.614 104.094 140.38 106.076L111.389 149.2L110.315 149.821H110.306C109.979 150.006 109.691 150.03 109.476 149.918L139.292 105.471C140.531 103.489 143.029 102.717 145.156 103.66L173.426 112.78V112.776Z" fill="#03967b"/>
<path opacity="0.4" d="M137.706 110.305L137.774 110.246L111.384 149.195L110.31 149.815H110.301C109.979 150.001 109.686 150.021 109.471 149.913L136.662 109.68L137.706 110.305Z" fill="white"/>
<path opacity="0.4" d="M173.425 112.776C173.406 112.81 173.386 112.839 173.357 112.873L146.234 104.265C144.107 103.318 141.614 104.089 140.375 106.072L139.301 105.447C140.541 103.474 143.029 102.712 145.156 103.65L173.425 112.776Z" fill="white"/>
<path d="M175.055 63.7826H175.05C174.992 63.4311 174.806 63.3334 174.567 63.4995C174.474 63.5629 174.367 63.6703 174.255 63.8217L174.118 64.0121L147.357 104.729L143.361 110.3C142.912 110.935 141.926 111.301 141.16 111.125L137.711 110.305L111.379 100.603C111.189 100.559 111.008 100.554 110.842 100.584C110.774 100.598 110.706 100.618 110.642 100.647L111.633 100.071L136.877 109.328L140.199 110.515C140.96 110.696 141.946 110.329 142.4 109.69L146.396 104.123L173.289 63.2163C173.377 63.0942 173.484 63.0063 173.591 62.9379L171.264 61.5952L172.24 61.0337L173.85 61.9614C174.435 62.3032 174.928 63.0698 175.05 63.7778L175.055 63.7826Z" fill="#03967b"/>
<path opacity="0.4" d="M147.352 104.729L143.356 110.3C142.907 110.935 141.922 111.301 141.156 111.125L137.706 110.305L137.774 110.246L137.94 109.983L140.199 110.52C140.96 110.701 141.946 110.334 142.4 109.695L146.357 104.187L147.352 104.729Z" fill="white"/>
<path opacity="0.1" d="M173.85 61.9663L172.24 61.0386L171.264 61.6001L173.591 62.9428C173.591 62.9428 173.591 62.9428 173.596 62.9428C173.479 63.0161 173.377 63.104 173.294 63.2211L146.4 104.123L146.361 104.177L147.357 104.724L174.118 64.0072L174.255 63.8168C174.367 63.6655 174.474 63.558 174.567 63.4946C174.806 63.3286 174.991 63.4262 175.05 63.7778H175.055C174.933 63.0698 174.44 62.3032 173.855 61.9614L173.85 61.9663Z" fill="black"/>
<path d="M111.911 101.384L106.168 98.064V147.521C106.168 148.297 106.719 149.254 107.393 149.645L108.773 150.441C109.447 150.831 110.549 150.831 111.223 150.441L111.911 150.04V101.379V101.384Z" fill="#03967b"/>
<path opacity="0.15" d="M111.911 101.384L106.168 98.064V147.521C106.168 148.297 106.719 149.254 107.393 149.645L108.773 150.441C109.447 150.831 110.549 150.831 111.223 150.441L111.911 150.04V101.379V101.384Z" fill="black"/>
<path d="M175.079 64.0903V112.131C175.079 112.536 174.933 112.981 174.699 113.371C174.504 113.694 174.26 113.982 173.982 114.177L173.933 114.201C173.904 114.221 173.884 114.24 173.855 114.255L111.228 150.436H111.218C110.891 150.626 110.598 150.651 110.383 150.538C110.193 150.441 110.061 150.241 110.018 149.952C110.008 149.884 110.003 149.811 110.003 149.733V101.687C110.003 100.911 110.613 100.422 111.379 100.603L137.711 110.305L141.16 111.125C141.926 111.301 142.912 110.935 143.361 110.3L147.357 104.729L174.118 64.0122L174.255 63.8217C174.709 63.1919 175.079 63.3091 175.079 64.0903Z" fill="#03967b"/>
<path d="M173.85 114.255C173.879 114.24 173.904 114.221 173.928 114.201L173.977 114.172C174.255 113.977 174.499 113.689 174.694 113.371C174.923 112.985 175.07 112.546 175.075 112.15L147.357 104.724L165.922 118.835L173.855 114.25L173.85 114.255Z" fill="#03967b"/>
<path opacity="0.2" d="M173.85 114.255C173.879 114.24 173.904 114.221 173.928 114.201L173.977 114.172C174.255 113.977 174.499 113.689 174.694 113.371C174.923 112.985 175.07 112.546 175.075 112.15L147.357 104.724L165.922 118.835L173.855 114.25L173.85 114.255Z" fill="black"/>
<path d="M109.998 149.733C109.998 150.138 110.144 150.416 110.379 150.538C110.593 150.651 110.886 150.626 111.213 150.446H111.223L132.783 137.985L137.706 110.305L109.998 148.932V149.733Z" fill="#03967b"/>
<path opacity="0.15" d="M140.365 106.067L110.379 150.538C110.144 150.416 109.998 150.138 109.998 149.733V148.932L139.292 105.457C139.292 105.452 139.292 105.447 139.302 105.442L140.365 106.062V106.067Z" fill="black"/>
<path d="M174.694 113.376C174.499 113.698 174.255 113.987 173.977 114.177L173.928 114.206L111.222 150.441H111.213C110.886 150.631 110.593 150.651 110.378 150.538L140.37 106.057C141.614 104.07 144.122 103.298 146.264 104.246L174.694 113.371V113.376Z" fill="#03967b"/>
<path opacity="0.15" d="M106.397 93.6206L107.393 94.1968C107.251 94.6655 107.163 95.144 107.163 95.5346V98.64L106.168 98.0639V94.9536C106.168 94.5678 106.256 94.0893 106.397 93.6206Z" fill="black"/>
<path d="M111.632 100.076L110.642 100.647L109.637 100.066L107.163 98.6401L108.124 98.0688L111.632 100.076Z" fill="#03967b"/>
<path opacity="0.1" d="M111.676 100.095L108.124 98.0737L107.163 98.645L109.637 100.071L110.642 100.652H110.652C110.71 100.618 110.774 100.598 110.842 100.588C111.008 100.559 111.188 100.564 111.379 100.608L113.379 101.345L136.364 109.812L136.725 109.28L111.681 100.095H111.676Z" fill="black"/>
<path d="M57.7819 16.9234L54.0641 19.0717C54.0836 18.9057 54.0934 18.7397 54.0934 18.5786V17.4995C54.0934 15.5806 52.7468 14.8043 51.0879 15.7613C50.4146 16.1519 49.7998 16.7671 49.2973 17.4849C49.0241 15.0728 47.1359 14.1744 44.8379 15.5025C42.3544 16.938 40.3443 20.4243 40.3443 23.2953V24.9066C40.3443 25.6487 40.4809 26.2737 40.7248 26.7766L37.6364 28.5588C36.7143 29.091 35.9678 30.3849 35.9678 31.4494C35.9678 32.5138 36.7143 32.9435 37.6364 32.4113L57.777 20.7709C58.6992 20.2387 59.4457 18.9448 59.4457 17.8804C59.4457 16.8159 58.6992 16.3863 57.777 16.9185L57.7819 16.9234Z" fill="#F0F0F0"/>
<path d="M39.7883 4.66301L35.2117 7.30455C35.2361 7.09948 35.2508 6.89929 35.2508 6.6991V5.371C35.2508 3.00778 33.5968 2.05077 31.5525 3.23238C30.723 3.71089 29.9619 4.4677 29.3471 5.35635C29.0105 2.38768 26.6832 1.28419 23.8582 2.91501C20.804 4.68254 18.3254 8.97443 18.3254 12.5095V14.4919C18.3254 15.4049 18.4962 16.1764 18.7938 16.7916L14.993 18.9888C13.8611 19.6431 12.939 21.2349 12.939 22.5434C12.939 23.852 13.8562 24.3842 14.993 23.7299L39.7883 9.40411C40.9202 8.74983 41.8423 7.15807 41.8423 5.84951C41.8423 4.54094 40.9251 4.00873 39.7883 4.66301Z" fill="#F0F0F0"/>
<path d="M184.603 47.5134L201.865 36.4492L209.467 38.8954L184.603 47.5134Z" fill="#03967b"/>
<path d="M184.603 47.5135L199.523 35.0626L196.205 31.2346L184.603 47.5135Z" fill="#03967b"/>
<path d="M199.523 35.0625V37.9531L184.603 47.5134L199.523 35.0625Z" fill="#03967b"/>
<path opacity="0.25" d="M199.523 35.0625V37.9531L184.603 47.5134L199.523 35.0625Z" fill="black"/>
<path d="M202.007 34.8233C201.909 34.8233 201.812 34.7842 201.738 34.7061C201.602 34.5596 201.612 34.3252 201.758 34.1885C202.27 33.7149 202.743 33.1973 203.168 32.6505C203.29 32.4893 203.519 32.46 203.68 32.587C203.841 32.709 203.871 32.9385 203.744 33.0997C203.295 33.6758 202.797 34.2276 202.251 34.7305C202.182 34.794 202.09 34.8281 202.002 34.8281L202.007 34.8233ZM204.754 31.1759C204.7 31.1759 204.641 31.1612 204.593 31.1368C204.412 31.044 204.339 30.8243 204.427 30.6437C204.851 29.799 205.173 28.9005 205.393 27.9777C205.437 27.7824 205.637 27.6603 205.832 27.7043C206.027 27.7531 206.149 27.9484 206.105 28.1437C205.876 29.1252 205.529 30.0773 205.081 30.9708C205.017 31.0978 204.885 31.171 204.754 31.171V31.1759ZM206.086 26.0149C206.086 26.0149 206.076 26.0149 206.071 26.0149C205.871 26.0051 205.715 25.8342 205.72 25.634C205.729 25.4387 205.734 25.2385 205.734 25.0432C205.734 24.2962 205.671 23.5394 205.544 22.7923C205.51 22.5921 205.647 22.4017 205.842 22.3724C206.037 22.3382 206.227 22.4749 206.261 22.6702C206.393 23.4563 206.461 24.2571 206.461 25.0432C206.461 25.2532 206.461 25.4582 206.447 25.6682C206.437 25.8635 206.276 26.0198 206.081 26.0198L206.086 26.0149ZM205.3 20.7367C205.149 20.7367 205.007 20.6439 204.954 20.4925C204.646 19.6088 204.251 18.7299 203.773 17.8901C203.675 17.7143 203.734 17.4897 203.91 17.392C204.085 17.2895 204.31 17.353 204.407 17.5288C204.905 18.4076 205.324 19.3256 205.646 20.2533C205.715 20.4437 205.612 20.6537 205.422 20.7172C205.383 20.7318 205.344 20.7367 205.3 20.7367ZM202.739 16.0444C202.631 16.0444 202.519 15.9956 202.451 15.9028C201.88 15.1606 201.231 14.4429 200.528 13.774C200.382 13.6324 200.377 13.4029 200.514 13.2564C200.65 13.1099 200.885 13.105 201.031 13.2417C201.763 13.94 202.436 14.6821 203.031 15.4536C203.153 15.6147 203.124 15.8442 202.963 15.9663C202.895 16.02 202.817 16.0444 202.739 16.0444ZM198.918 12.2945C198.84 12.2945 198.762 12.2701 198.699 12.2213C197.952 11.6549 197.142 11.1227 196.298 10.6344C196.123 10.5319 196.064 10.3073 196.167 10.1364C196.269 9.96058 196.489 9.90199 196.664 10.0045C197.538 10.5074 198.372 11.0592 199.143 11.6451C199.304 11.7672 199.338 11.9967 199.216 12.1578C199.143 12.2506 199.035 12.3043 198.923 12.3043L198.918 12.2945ZM160.574 10.8785C160.447 10.8785 160.325 10.8151 160.257 10.693C160.154 10.5172 160.218 10.2926 160.389 10.1949C161.238 9.70668 162.116 9.24282 163.009 8.82291C163.194 8.73502 163.409 8.81315 163.497 8.99869C163.584 9.17935 163.506 9.39907 163.321 9.48696C162.448 9.8971 161.584 10.3512 160.755 10.8297C160.696 10.8639 160.633 10.8785 160.574 10.8785ZM194.322 9.54067C194.269 9.54067 194.215 9.5309 194.161 9.50649C193.293 9.08658 192.4 8.70084 191.502 8.35417C191.312 8.28093 191.219 8.07098 191.292 7.88055C191.366 7.69013 191.575 7.59736 191.766 7.6706C192.683 8.02215 193.595 8.41765 194.478 8.84733C194.659 8.93521 194.737 9.15494 194.649 9.3356C194.586 9.46743 194.454 9.54067 194.317 9.54067H194.322ZM165.404 8.55436C165.258 8.55436 165.121 8.46648 165.063 8.31999C164.99 8.12957 165.082 7.91961 165.268 7.84637C166.18 7.48994 167.122 7.1628 168.063 6.8796C168.254 6.82101 168.459 6.93331 168.517 7.12373C168.576 7.31904 168.468 7.52412 168.273 7.57783C167.351 7.85614 166.429 8.17351 165.536 8.52507C165.492 8.5446 165.448 8.54948 165.404 8.54948V8.55436ZM189.331 7.58271C189.297 7.58271 189.258 7.57783 189.224 7.56806C188.306 7.28975 187.365 7.04073 186.423 6.83566C186.228 6.79171 186.101 6.5964 186.145 6.4011C186.189 6.20091 186.384 6.07884 186.579 6.12278C187.54 6.33274 188.502 6.58176 189.438 6.86983C189.634 6.92843 189.741 7.1335 189.682 7.32881C189.634 7.48505 189.487 7.58759 189.331 7.58759V7.58271ZM170.527 6.97237C170.361 6.97237 170.21 6.86007 170.171 6.68917C170.127 6.49387 170.249 6.29368 170.444 6.24973C171.401 6.03001 172.376 5.84447 173.347 5.70287C173.542 5.67357 173.733 5.81029 173.762 6.01048C173.791 6.21067 173.655 6.39621 173.455 6.42551C172.503 6.56711 171.542 6.74777 170.605 6.96261C170.576 6.96749 170.552 6.97237 170.522 6.97237H170.527ZM184.101 6.41086C184.101 6.41086 184.067 6.41086 184.047 6.41086C183.096 6.26926 182.13 6.17161 181.164 6.10813C180.963 6.09349 180.807 5.92259 180.822 5.71752C180.837 5.51733 181.007 5.36108 181.212 5.37573C182.193 5.43921 183.183 5.54174 184.149 5.68334C184.35 5.71264 184.486 5.89818 184.457 6.09837C184.432 6.27903 184.271 6.41086 184.096 6.41086H184.101ZM175.826 6.15208C175.636 6.15208 175.479 6.0056 175.46 5.81517C175.445 5.61498 175.592 5.43921 175.797 5.41967C176.777 5.34155 177.768 5.29761 178.748 5.29761C178.948 5.29761 179.114 5.45874 179.114 5.66381C179.114 5.864 178.953 6.03001 178.748 6.03001C177.787 6.03001 176.816 6.07396 175.855 6.15208C175.845 6.15208 175.836 6.15208 175.826 6.15208Z" fill="#E0E0E0"/>
</g>
<defs>
<clipPath id="clip0_208_42">
<rect width="218" height="200" fill="white"/>
</clipPath>
</defs>
</svg>
